<svg xmlns="http://www.w3.org/2000/svg" width="666" height="597" fill="none"><g filter="url(#a)"><rect width="409" height="56" x="42" y="144" fill="#A1AEE5" fill-opacity=".05" rx="15"/><rect width="409" height="56" x="42" y="144" fill="url(#b)" fill-opacity=".2" rx="15"/><rect width="408" height="55" x="42.5" y="144.5" stroke="#A1AEE5" stroke-opacity=".24" rx="14.5"/></g><path fill="#A1AEE5" d="M85.874 174.511h1.59c.15 1.371 1.451 2.276 3.262 2.276 1.713 0 2.962-.905 2.962-2.153 0-1.072-.748-1.732-2.453-2.171l-1.626-.422c-2.337-.598-3.375-1.626-3.375-3.349 0-2.109 1.846-3.586 4.483-3.586 2.522 0 4.35 1.495 4.42 3.622h-1.581c-.141-1.363-1.24-2.198-2.892-2.198-1.644 0-2.786.853-2.786 2.092 0 .958.703 1.529 2.426 1.978l1.327.351c2.628.659 3.691 1.67 3.691 3.489 0 2.321-1.828 3.771-4.746 3.771-2.69 0-4.553-1.459-4.702-3.7zm19.362-5.986V178h-1.441v-1.564h-.036c-.588 1.089-1.652 1.652-3.102 1.652-2.074 0-3.366-1.336-3.366-3.489v-6.074h1.529v5.81c0 1.556.817 2.391 2.303 2.391 1.555 0 2.584-1.073 2.584-2.699v-5.502h1.529zm7.101 9.563c-1.38 0-2.47-.598-3.085-1.688h-.035v1.6h-1.45v-13.236h1.529v5.299h.035c.598-1.037 1.697-1.625 3.041-1.625 2.382 0 4.008 1.933 4.008 4.825 0 2.9-1.626 4.825-4.043 4.825zm-.272-8.288c-1.653 0-2.778 1.415-2.778 3.463 0 2.056 1.125 3.463 2.778 3.463 1.661 0 2.751-1.354 2.751-3.463 0-2.101-1.09-3.463-2.751-3.463zm6.134 1.371c0-1.6 1.45-2.725 3.507-2.725 1.925 0 3.384 1.152 3.445 2.707h-1.467c-.097-.887-.871-1.441-2.031-1.441-1.169 0-1.951.554-1.951 1.38 0 .641.51 1.072 1.6 1.345l1.441.36c1.916.483 2.602 1.151 2.602 2.531 0 1.617-1.556 2.76-3.744 2.76-2.04 0-3.516-1.108-3.666-2.751h1.539c.158.967.94 1.485 2.232 1.485 1.292 0 2.101-.536 2.101-1.388 0-.668-.396-1.02-1.477-1.301l-1.661-.431c-1.661-.431-2.47-1.265-2.47-2.531zm16.998.439h-1.503c-.193-1.01-1.037-1.81-2.461-1.81-1.652 0-2.777 1.371-2.777 3.463 0 2.153 1.142 3.463 2.795 3.463 1.318 0 2.197-.616 2.46-1.758h1.503c-.254 1.845-1.81 3.12-3.972 3.12-2.602 0-4.342-1.846-4.342-4.825 0-2.909 1.731-4.825 4.324-4.825 2.347 0 3.779 1.511 3.973 3.172zm1.845 6.39v-9.475h1.442v1.538h.035c.281-.993 1.186-1.625 2.294-1.625.184 0 .457.026.589.061v1.512c-.123-.053-.528-.106-.791-.106-1.231 0-2.04.897-2.04 2.233V178h-1.529zm6.161 0v-9.475h1.529V178h-1.529zm.765-11.004a.975.975 0 0 1-.967-.967.97.97 0 0 1 .967-.967c.536 0 .966.431.966.967 0 .528-.43.967-.966.967zm7.839 1.442c2.417 0 4.061 1.933 4.061 4.825 0 2.891-1.635 4.825-4.026 4.825-1.344 0-2.426-.589-3.023-1.626h-.035v4.702h-1.53v-12.639h1.451v1.538h.035c.553-.984 1.758-1.625 3.067-1.625zm-.281 8.288c1.67 0 2.777-1.363 2.777-3.463 0-2.092-1.107-3.463-2.777-3.463-1.635 0-2.751 1.406-2.751 3.463 0 2.065 1.116 3.463 2.751 3.463zm6.82-10.336h1.529v2.135h1.846v1.266h-1.846v5.687c0 .87.369 1.265 1.178 1.265.184 0 .554-.026.659-.044v1.292c-.185.044-.624.079-.984.079-1.714 0-2.382-.712-2.382-2.531v-5.748h-1.319v-1.266h1.319v-2.135zm5.519 11.61v-9.475h1.529V178h-1.529zm.765-11.004a.975.975 0 0 1-.967-.967.97.97 0 0 1 .967-.967c.536 0 .966.431.966.967 0 .528-.43.967-.966.967zm7.189 11.092c-2.663 0-4.368-1.89-4.368-4.825 0-2.945 1.705-4.825 4.368-4.825 2.663 0 4.368 1.88 4.368 4.825 0 2.935-1.705 4.825-4.368 4.825zm0-1.362c1.766 0 2.812-1.292 2.812-3.463 0-2.18-1.046-3.463-2.812-3.463-1.767 0-2.813 1.292-2.813 3.463 0 2.171 1.055 3.463 2.813 3.463zm6.336 1.274v-9.475h1.442v1.538h.035c.598-1.072 1.626-1.625 3.094-1.625 2.083 0 3.375 1.335 3.375 3.489V178h-1.53v-5.81c0-1.546-.808-2.39-2.302-2.39-1.556 0-2.584 1.072-2.584 2.698V178h-1.53zm19.564-9.562c2.417 0 4.061 1.933 4.061 4.825 0 2.891-1.635 4.825-4.026 4.825-1.345 0-2.426-.589-3.023-1.626h-.035v4.702h-1.53v-12.639h1.451v1.538h.035c.553-.984 1.757-1.625 3.067-1.625zm-.281 8.288c1.67 0 2.777-1.363 2.777-3.463 0-2.092-1.107-3.463-2.777-3.463-1.635 0-2.751 1.406-2.751 3.463 0 2.065 1.116 3.463 2.751 3.463zm6.407 1.274v-13.236h1.529V178h-1.529zm7.145-1.239c1.547 0 2.681-1.002 2.681-2.365v-.764l-2.479.158c-1.424.088-2.162.606-2.162 1.521 0 .878.765 1.45 1.96 1.45zm-.325 1.327c-1.925 0-3.2-1.108-3.2-2.786 0-1.626 1.248-2.584 3.551-2.725l2.655-.158v-.791c0-1.178-.774-1.828-2.171-1.828-1.099 0-1.916.562-2.101 1.459h-1.468c.044-1.6 1.6-2.821 3.586-2.821 2.241 0 3.683 1.195 3.683 3.058V178h-1.45v-1.644h-.036c-.536 1.055-1.722 1.732-3.049 1.732zm6.925-.088v-9.475h1.441v1.538h.036c.597-1.072 1.626-1.625 3.093-1.625 2.083 0 3.375 1.335 3.375 3.489V178h-1.529v-5.81c0-1.546-.809-2.39-2.303-2.39-1.555 0-2.584 1.072-2.584 2.698V178h-1.529zm10.186-6.829c0-1.6 1.45-2.725 3.507-2.725 1.925 0 3.384 1.152 3.445 2.707h-1.467c-.097-.887-.87-1.441-2.031-1.441-1.169 0-1.951.554-1.951 1.38 0 .641.51 1.072 1.6 1.345l1.441.36c1.916.483 2.602 1.151 2.602 2.531 0 1.617-1.556 2.76-3.744 2.76-2.039 0-3.516-1.108-3.665-2.751h1.538c.158.967.94 1.485 2.232 1.485 1.292 0 2.101-.536 2.101-1.388 0-.668-.396-1.02-1.477-1.301l-1.661-.431c-1.661-.431-2.47-1.265-2.47-2.531zm16.927 5.59c1.547 0 2.681-1.002 2.681-2.365v-.764l-2.479.158c-1.423.088-2.162.606-2.162 1.521 0 .878.765 1.45 1.96 1.45zm-.325 1.327c-1.925 0-3.199-1.108-3.199-2.786 0-1.626 1.248-2.584 3.551-2.725l2.654-.158v-.791c0-1.178-.773-1.828-2.171-1.828-1.099 0-1.916.562-2.101 1.459h-1.467c.044-1.6 1.599-2.821 3.586-2.821 2.241 0 3.682 1.195 3.682 3.058V178h-1.45v-1.644h-.035c-.536 1.055-1.723 1.732-3.05 1.732zm6.926-.088v-9.475h1.441v1.538h.035c.598-1.072 1.626-1.625 3.094-1.625 2.083 0 3.375 1.335 3.375 3.489V178h-1.529v-5.81c0-1.546-.809-2.39-2.303-2.39-1.556 0-2.584 1.072-2.584 2.698V178h-1.529zm13.939.088c-2.382 0-4.061-1.934-4.061-4.825 0-2.892 1.67-4.825 4.025-4.825 1.354 0 2.444.588 3.024 1.625h.035v-5.299h1.529V178h-1.459v-1.6h-.026c-.615 1.09-1.696 1.688-3.067 1.688zm.272-8.288c-1.661 0-2.768 1.371-2.768 3.463 0 2.1 1.107 3.463 2.768 3.463 1.644 0 2.76-1.398 2.76-3.463 0-2.057-1.116-3.463-2.76-3.463zm16.031-1.362c2.417 0 4.06 1.933 4.06 4.825 0 2.891-1.635 4.825-4.025 4.825-1.345 0-2.426-.589-3.024-1.626h-.035v4.702h-1.529v-12.639h1.45v1.538h.035c.554-.984 1.758-1.625 3.068-1.625zm-.282 8.288c1.67 0 2.778-1.363 2.778-3.463 0-2.092-1.108-3.463-2.778-3.463-1.634 0-2.751 1.406-2.751 3.463 0 2.065 1.117 3.463 2.751 3.463zm6.319 1.274v-9.475h1.442v1.538h.035c.281-.993 1.186-1.625 2.294-1.625.184 0 .457.026.589.061v1.512c-.123-.053-.528-.106-.791-.106-1.231 0-2.039.897-2.039 2.233V178h-1.53zm6.161 0v-9.475h1.529V178h-1.529zm.765-11.004a.975.975 0 0 1-.967-.967.97.97 0 0 1 .967-.967c.536 0 .967.431.967.967a.97.97 0 0 1-.967.967zm11.118 4.614h-1.503c-.194-1.01-1.037-1.81-2.461-1.81-1.653 0-2.778 1.371-2.778 3.463 0 2.153 1.143 3.463 2.795 3.463 1.319 0 2.198-.616 2.461-1.758h1.503c-.255 1.845-1.81 3.12-3.972 3.12-2.602 0-4.342-1.846-4.342-4.825 0-2.909 1.731-4.825 4.324-4.825 2.347 0 3.779 1.511 3.973 3.172zm1.933 6.39v-9.475h1.529V178h-1.529zm.764-11.004a.975.975 0 0 1-.966-.967.97.97 0 0 1 .966-.967c.537 0 .967.431.967.967 0 .528-.43.967-.967.967zM311.611 178v-9.475h1.442v1.538h.035c.597-1.072 1.626-1.625 3.094-1.625 2.083 0 3.375 1.335 3.375 3.489V178h-1.53v-5.81c0-1.546-.808-2.39-2.302-2.39-1.556 0-2.584 1.072-2.584 2.698V178h-1.53zm14.177-1.362c1.661 0 2.786-1.38 2.786-3.41 0-2.04-1.125-3.428-2.786-3.428-1.653 0-2.734 1.353-2.734 3.428 0 2.065 1.081 3.41 2.734 3.41zm.026 4.746c-2.145 0-3.7-1.037-3.92-2.611h1.591c.228.791 1.169 1.284 2.417 1.284 1.635 0 2.672-.853 2.672-2.198v-1.485h-.035c-.598 1.028-1.714 1.626-3.041 1.626-2.4 0-4.008-1.907-4.008-4.772 0-2.892 1.608-4.79 4.043-4.79 1.336 0 2.452.588 3.085 1.625h.026v-1.538h1.459v9.211c0 2.268-1.626 3.648-4.289 3.648zm14.993-3.296c-2.381 0-4.06-1.934-4.06-4.825 0-2.892 1.67-4.825 4.025-4.825 1.354 0 2.444.588 3.024 1.625h.035v-5.299h1.529V178h-1.459v-1.6h-.026c-.615 1.09-1.696 1.688-3.068 1.688zm.273-8.288c-1.661 0-2.769 1.371-2.769 3.463 0 2.1 1.108 3.463 2.769 3.463 1.643 0 2.76-1.398 2.76-3.463 0-2.057-1.117-3.463-2.76-3.463zm6.899 8.2v-9.475h1.529V178h-1.529zm.765-11.004a.975.975 0 0 1-.967-.967.97.97 0 0 1 .967-.967c.536 0 .966.431.966.967 0 .528-.43.967-.966.967zm3.128 4.175c0-1.6 1.45-2.725 3.507-2.725 1.925 0 3.384 1.152 3.445 2.707h-1.467c-.097-.887-.871-1.441-2.031-1.441-1.169 0-1.951.554-1.951 1.38 0 .641.51 1.072 1.6 1.345l1.441.36c1.916.483 2.602 1.151 2.602 2.531 0 1.617-1.556 2.76-3.744 2.76-2.04 0-3.516-1.108-3.665-2.751h1.538c.158.967.94 1.485 2.232 1.485 1.292 0 2.101-.536 2.101-1.388 0-.668-.396-1.02-1.477-1.301l-1.661-.431c-1.661-.431-2.47-1.265-2.47-2.531zm13.72-2.733c2.417 0 4.06 1.933 4.06 4.825 0 2.891-1.635 4.825-4.025 4.825-1.345 0-2.426-.589-3.024-1.626h-.035v4.702h-1.529v-12.639h1.45v1.538h.035c.554-.984 1.758-1.625 3.068-1.625zm-.282 8.288c1.67 0 2.778-1.363 2.778-3.463 0-2.092-1.108-3.463-2.778-3.463-1.634 0-2.751 1.406-2.751 3.463 0 2.065 1.117 3.463 2.751 3.463zm6.407 1.274v-13.236h1.529V178h-1.529zm7.145-1.239c1.547 0 2.681-1.002 2.681-2.365v-.764l-2.479.158c-1.423.088-2.162.606-2.162 1.521 0 .878.765 1.45 1.96 1.45zm-.325 1.327c-1.925 0-3.199-1.108-3.199-2.786 0-1.626 1.248-2.584 3.551-2.725l2.654-.158v-.791c0-1.178-.773-1.828-2.171-1.828-1.099 0-1.916.562-2.1 1.459h-1.468c.044-1.6 1.599-2.821 3.586-2.821 2.241 0 3.682 1.195 3.682 3.058V178h-1.45v-1.644h-.035c-.536 1.055-1.723 1.732-3.05 1.732zm7.734 3.349c-.193 0-.483-.027-.668-.062v-1.292c.176.035.422.053.624.053.879 0 1.354-.422 1.74-1.565l.185-.562-3.507-9.484h1.626l2.654 7.919h.036l2.654-7.919h1.608l-3.709 10.055c-.808 2.197-1.564 2.857-3.243 2.857z"/><circle cx="433.75" cy="186.25" r="1.75" fill="#A1AEE5" opacity=".4"/><circle cx="433.75" cy="157.75" r="1.75" fill="#A1AEE5" opacity=".4"/><circle cx="58.75" cy="186.25" r="1.75" fill="#A1AEE5" opacity=".4"/><circle cx="58.75" cy="157.75" r="1.75" fill="#A1AEE5" opacity=".4"/><g filter="url(#c)"><rect width="409" height="56" x="222" y="365" fill="#A1AEE5" fill-opacity=".05" rx="15"/><rect width="409" height="56" x="222" y="365" fill="url(#d)" fill-opacity=".2" rx="15"/><rect width="408" height="55" x="222.5" y="365.5" stroke="#A1AEE5" stroke-opacity=".24" rx="14.5"/></g><path fill="#A1AEE5" d="M277.177 393.753c0 3.428-1.995 5.458-5.379 5.458-3.542 0-5.81-2.584-5.81-6.618 0-3.964 2.259-6.487 5.81-6.487 2.742 0 4.825 1.626 5.3 4.149h-1.661c-.528-1.714-1.855-2.69-3.639-2.69-2.61 0-4.184 1.881-4.184 5.019 0 3.19 1.6 5.168 4.184 5.168 2.25 0 3.797-1.459 3.797-3.586v-.228h-3.577v-1.389h5.159v1.204zm2.197 5.247v-9.475h1.441v1.538h.035c.281-.993 1.187-1.625 2.294-1.625.185 0 .457.026.589.061v1.512c-.123-.053-.527-.106-.791-.106-1.23 0-2.039.897-2.039 2.233V399h-1.529zm9.166-1.239c1.547 0 2.681-1.002 2.681-2.365v-.764l-2.479.158c-1.423.088-2.162.606-2.162 1.521 0 .878.765 1.45 1.96 1.45zm-.325 1.327c-1.925 0-3.199-1.108-3.199-2.786 0-1.626 1.248-2.584 3.551-2.725l2.654-.158v-.791c0-1.178-.773-1.828-2.171-1.828-1.099 0-1.916.562-2.101 1.459h-1.467c.044-1.6 1.599-2.821 3.586-2.821 2.241 0 3.682 1.195 3.682 3.058V399h-1.45v-1.644h-.035c-.536 1.055-1.723 1.732-3.05 1.732zm11.478-9.65c2.417 0 4.061 1.933 4.061 4.825 0 2.891-1.635 4.825-4.026 4.825-1.344 0-2.425-.589-3.023-1.626h-.035v4.702h-1.529v-12.639h1.45v1.538h.035c.554-.984 1.758-1.625 3.067-1.625zm-.281 8.288c1.67 0 2.777-1.363 2.777-3.463 0-2.092-1.107-3.463-2.777-3.463-1.635 0-2.751 1.406-2.751 3.463 0 2.065 1.116 3.463 2.751 3.463zm6.407 1.274v-13.236h1.529v5.299h.035c.589-1.072 1.644-1.625 3.094-1.625 2.074 0 3.472 1.406 3.472 3.515V399h-1.53v-5.774c0-1.512-.896-2.426-2.399-2.426-1.6 0-2.672 1.09-2.672 2.751V399h-1.529zm10.362-6.829c0-1.6 1.45-2.725 3.507-2.725 1.924 0 3.383 1.152 3.445 2.707h-1.468c-.096-.887-.87-1.441-2.03-1.441-1.169 0-1.951.554-1.951 1.38 0 .641.51 1.072 1.599 1.345l1.442.36c1.916.483 2.601 1.151 2.601 2.531 0 1.617-1.555 2.76-3.744 2.76-2.039 0-3.515-1.108-3.665-2.751h1.538c.158.967.941 1.485 2.233 1.485 1.292 0 2.1-.536 2.1-1.388 0-.668-.395-1.02-1.476-1.301l-1.661-.431c-1.662-.431-2.47-1.265-2.47-2.531zm10.186 9.088h-1.186l.878-4.034h1.626l-1.318 4.034zm16.567-8.649h-1.503c-.194-1.01-1.037-1.81-2.461-1.81-1.653 0-2.778 1.371-2.778 3.463 0 2.153 1.143 3.463 2.795 3.463 1.319 0 2.198-.616 2.461-1.758h1.503c-.255 1.845-1.81 3.12-3.972 3.12-2.602 0-4.342-1.846-4.342-4.825 0-2.909 1.731-4.825 4.324-4.825 2.347 0 3.779 1.511 3.973 3.172zm1.933 6.39v-13.236h1.529v5.299h.035c.589-1.072 1.644-1.625 3.094-1.625 2.074 0 3.472 1.406 3.472 3.515V399h-1.529v-5.774c0-1.512-.897-2.426-2.4-2.426-1.599 0-2.672 1.09-2.672 2.751V399h-1.529zm13.614-1.239c1.547 0 2.681-1.002 2.681-2.365v-.764l-2.479.158c-1.424.088-2.162.606-2.162 1.521 0 .878.765 1.45 1.96 1.45zm-.325 1.327c-1.925 0-3.2-1.108-3.2-2.786 0-1.626 1.248-2.584 3.551-2.725l2.655-.158v-.791c0-1.178-.774-1.828-2.171-1.828-1.099 0-1.916.562-2.101 1.459h-1.468c.044-1.6 1.6-2.821 3.586-2.821 2.241 0 3.683 1.195 3.683 3.058V399h-1.45v-1.644h-.036c-.536 1.055-1.722 1.732-3.049 1.732zm6.925-.088v-9.475h1.441v1.538h.036c.281-.993 1.186-1.625 2.294-1.625.184 0 .457.026.588.061v1.512c-.123-.053-.527-.106-.791-.106-1.23 0-2.039.897-2.039 2.233V399h-1.529zm6.574-11.61h1.529v2.135h1.846v1.266h-1.846v5.687c0 .87.369 1.265 1.178 1.265.185 0 .554-.026.659-.044v1.292c-.184.044-.624.079-.984.079-1.714 0-2.382-.712-2.382-2.531v-5.748h-1.318v-1.266h1.318v-2.135zm5.273 4.781c0-1.6 1.45-2.725 3.507-2.725 1.925 0 3.384 1.152 3.445 2.707h-1.468c-.096-.887-.87-1.441-2.03-1.441-1.169 0-1.951.554-1.951 1.38 0 .641.51 1.072 1.6 1.345l1.441.36c1.916.483 2.602 1.151 2.602 2.531 0 1.617-1.556 2.76-3.745 2.76-2.039 0-3.515-1.108-3.665-2.751h1.538c.159.967.941 1.485 2.233 1.485 1.292 0 2.1-.536 2.1-1.388 0-.668-.395-1.02-1.476-1.301l-1.661-.431c-1.661-.431-2.47-1.265-2.47-2.531zm10.186 9.088h-1.186l.879-4.034h1.626l-1.319 4.034zm11.83-3.498c1.546 0 2.68-1.002 2.68-2.365v-.764l-2.478.158c-1.424.088-2.162.606-2.162 1.521 0 .878.764 1.45 1.96 1.45zm-.326 1.327c-1.924 0-3.199-1.108-3.199-2.786 0-1.626 1.248-2.584 3.551-2.725l2.654-.158v-.791c0-1.178-.773-1.828-2.171-1.828-1.098 0-1.916.562-2.1 1.459h-1.468c.044-1.6 1.6-2.821 3.586-2.821 2.241 0 3.683 1.195 3.683 3.058V399h-1.451v-1.644h-.035c-.536 1.055-1.722 1.732-3.05 1.732zm6.926-.088v-9.475h1.441v1.538h.035c.598-1.072 1.626-1.625 3.094-1.625 2.083 0 3.375 1.335 3.375 3.489V399h-1.529v-5.81c0-1.546-.809-2.39-2.303-2.39-1.556 0-2.584 1.072-2.584 2.698V399h-1.529zm13.939.088c-2.382 0-4.061-1.934-4.061-4.825 0-2.892 1.67-4.825 4.026-4.825 1.353 0 2.443.588 3.023 1.625h.035v-5.299h1.53V399h-1.459v-1.6h-.027c-.615 1.09-1.696 1.688-3.067 1.688zm.272-8.288c-1.661 0-2.768 1.371-2.768 3.463 0 2.1 1.107 3.463 2.768 3.463 1.644 0 2.76-1.398 2.76-3.463 0-2.057-1.116-3.463-2.76-3.463zm15.073 8.288c-2.382 0-4.061-1.934-4.061-4.825 0-2.892 1.67-4.825 4.026-4.825 1.353 0 2.443.588 3.023 1.625h.035v-5.299h1.53V399h-1.459v-1.6h-.027c-.615 1.09-1.696 1.688-3.067 1.688zm.272-8.288c-1.661 0-2.768 1.371-2.768 3.463 0 2.1 1.107 3.463 2.768 3.463 1.644 0 2.76-1.398 2.76-3.463 0-2.057-1.116-3.463-2.76-3.463zm9.905 6.961c1.547 0 2.681-1.002 2.681-2.365v-.764l-2.479.158c-1.423.088-2.162.606-2.162 1.521 0 .878.765 1.45 1.96 1.45zm-.325 1.327c-1.925 0-3.199-1.108-3.199-2.786 0-1.626 1.248-2.584 3.551-2.725l2.654-.158v-.791c0-1.178-.773-1.828-2.171-1.828-1.099 0-1.916.562-2.101 1.459h-1.467c.044-1.6 1.599-2.821 3.586-2.821 2.241 0 3.682 1.195 3.682 3.058V399h-1.45v-1.644h-.035c-.536 1.055-1.723 1.732-3.05 1.732zm7.427-11.698h1.529v2.135h1.846v1.266h-1.846v5.687c0 .87.369 1.265 1.178 1.265.184 0 .553-.026.659-.044v1.292c-.185.044-.624.079-.985.079-1.714 0-2.381-.712-2.381-2.531v-5.748h-1.319v-1.266h1.319v-2.135zm8.437 10.371c1.547 0 2.68-1.002 2.68-2.365v-.764l-2.478.158c-1.424.088-2.162.606-2.162 1.521 0 .878.764 1.45 1.96 1.45zm-.326 1.327c-1.924 0-3.199-1.108-3.199-2.786 0-1.626 1.248-2.584 3.551-2.725l2.654-.158v-.791c0-1.178-.773-1.828-2.171-1.828-1.098 0-1.916.562-2.1 1.459h-1.468c.044-1.6 1.6-2.821 3.586-2.821 2.241 0 3.683 1.195 3.683 3.058V399h-1.451v-1.644h-.035c-.536 1.055-1.722 1.732-3.05 1.732zm19.318-9.563L476.038 399h-1.547l-3.498-9.475h1.6l2.654 7.823h.035l2.663-7.823h1.591zm1.705 9.475v-9.475h1.529V399h-1.529zm.765-11.004a.975.975 0 0 1-.967-.967.97.97 0 0 1 .967-.967c.536 0 .966.431.966.967 0 .528-.43.967-.966.967zm3.128 4.175c0-1.6 1.45-2.725 3.507-2.725 1.925 0 3.384 1.152 3.445 2.707h-1.468c-.096-.887-.87-1.441-2.03-1.441-1.169 0-1.951.554-1.951 1.38 0 .641.51 1.072 1.6 1.345l1.441.36c1.916.483 2.602 1.151 2.602 2.531 0 1.617-1.556 2.76-3.745 2.76-2.039 0-3.515-1.108-3.665-2.751h1.538c.159.967.941 1.485 2.233 1.485 1.292 0 2.1-.536 2.1-1.388 0-.668-.395-1.02-1.476-1.301l-1.661-.431c-1.661-.431-2.47-1.265-2.47-2.531zm17.068-2.646V399h-1.441v-1.564h-.035c-.589 1.089-1.653 1.652-3.103 1.652-2.074 0-3.366-1.336-3.366-3.489v-6.074h1.529v5.81c0 1.556.817 2.391 2.303 2.391 1.555 0 2.584-1.073 2.584-2.699v-5.502h1.529zm5.537 8.236c1.547 0 2.68-1.002 2.68-2.365v-.764l-2.478.158c-1.424.088-2.162.606-2.162 1.521 0 .878.765 1.45 1.96 1.45zm-.325 1.327c-1.925 0-3.2-1.108-3.2-2.786 0-1.626 1.248-2.584 3.551-2.725l2.654-.158v-.791c0-1.178-.773-1.828-2.17-1.828-1.099 0-1.916.562-2.101 1.459h-1.468c.044-1.6 1.6-2.821 3.586-2.821 2.241 0 3.683 1.195 3.683 3.058V399h-1.45v-1.644h-.036c-.536 1.055-1.722 1.732-3.049 1.732zm7.013-.088v-13.236h1.529V399h-1.529zm4.139 0v-9.475h1.53V399h-1.53zm.765-11.004a.976.976 0 0 1-.967-.967.97.97 0 0 1 .967-.967c.536 0 .967.431.967.967a.97.97 0 0 1-.967.967zM522.415 399v-1.107l5.283-7.076v-.026h-5.274v-1.266h6.996v1.134l-5.247 7.049v.026h5.274V399h-7.032zm12.358-1.239c1.546 0 2.68-1.002 2.68-2.365v-.764l-2.478.158c-1.424.088-2.162.606-2.162 1.521 0 .878.764 1.45 1.96 1.45zm-.326 1.327c-1.924 0-3.199-1.108-3.199-2.786 0-1.626 1.248-2.584 3.551-2.725l2.654-.158v-.791c0-1.178-.773-1.828-2.171-1.828-1.098 0-1.916.562-2.1 1.459h-1.468c.044-1.6 1.6-2.821 3.586-2.821 2.241 0 3.683 1.195 3.683 3.058V399h-1.451v-1.644h-.035c-.536 1.055-1.722 1.732-3.05 1.732zm7.427-11.698h1.529v2.135h1.846v1.266h-1.846v5.687c0 .87.369 1.265 1.178 1.265.184 0 .554-.026.659-.044v1.292c-.185.044-.624.079-.984.079-1.714 0-2.382-.712-2.382-2.531v-5.748h-1.319v-1.266h1.319v-2.135zm5.519 11.61v-9.475h1.529V399h-1.529zm.765-11.004a.975.975 0 0 1-.967-.967.97.97 0 0 1 .967-.967c.536 0 .966.431.966.967 0 .528-.43.967-.966.967zm7.189 11.092c-2.663 0-4.368-1.89-4.368-4.825 0-2.945 1.705-4.825 4.368-4.825 2.663 0 4.368 1.88 4.368 4.825 0 2.935-1.705 4.825-4.368 4.825zm0-1.362c1.766 0 2.812-1.292 2.812-3.463 0-2.18-1.046-3.463-2.812-3.463-1.767 0-2.813 1.292-2.813 3.463 0 2.171 1.055 3.463 2.813 3.463zm6.336 1.274v-9.475h1.442v1.538h.035c.598-1.072 1.626-1.625 3.094-1.625 2.083 0 3.375 1.335 3.375 3.489V399h-1.53v-5.81c0-1.546-.808-2.39-2.302-2.39-1.556 0-2.584 1.072-2.584 2.698V399h-1.53z"/><circle cx="613.75" cy="407.25" r="1.75" fill="#A1AEE5" opacity=".4"/><circle cx="613.75" cy="378.75" r="1.75" fill="#A1AEE5" opacity=".4"/><circle cx="238.75" cy="407.25" r="1.75" fill="#A1AEE5" opacity=".4"/><circle cx="238.75" cy="378.75" r="1.75" fill="#A1AEE5" opacity=".4"/><g filter="url(#e)"><rect width="409" height="84" x="152" y="258" fill="#A1AEE5" fill-opacity=".05" rx="15"/><rect width="409" height="84" x="152" y="258" fill="url(#f)" fill-opacity=".2" rx="15"/><rect width="408" height="83" x="152.5" y="258.5" stroke="#A1AEE5" stroke-opacity=".24" rx="14.5"/></g><path fill="#A1AEE5" d="M196.48 279.317h4.791c2.381 0 4.06 1.67 4.06 4.07 0 2.408-1.696 4.087-4.078 4.087h-3.191V292h-1.582v-12.683zm1.582 1.407v5.343h2.795c1.811 0 2.848-.993 2.848-2.68 0-1.679-1.028-2.663-2.848-2.663h-2.795zm12.595 3.058c-1.485 0-2.558 1.081-2.663 2.681h5.212c-.035-1.609-1.055-2.681-2.549-2.681zm2.514 5.511h1.511c-.263 1.626-1.907 2.795-3.928 2.795-2.664 0-4.342-1.855-4.342-4.79 0-2.936 1.687-4.86 4.271-4.86 2.531 0 4.114 1.784 4.114 4.649v.598h-6.803v.087c0 1.802 1.107 2.971 2.795 2.971 1.186 0 2.109-.562 2.382-1.45zm3.594 2.707v-9.475h1.441v1.538h.035c.282-.993 1.187-1.625 2.294-1.625.185 0 .457.026.589.061v1.512c-.123-.053-.527-.106-.791-.106-1.23 0-2.039.897-2.039 2.233V292h-1.529zm5.915-6.829c0-1.6 1.45-2.725 3.506-2.725 1.925 0 3.384 1.152 3.446 2.707h-1.468c-.097-.887-.87-1.441-2.03-1.441-1.169 0-1.951.554-1.951 1.38 0 .641.509 1.072 1.599 1.345l1.442.36c1.916.483 2.601 1.151 2.601 2.531 0 1.617-1.556 2.76-3.744 2.76-2.039 0-3.516-1.108-3.665-2.751h1.538c.158.967.94 1.485 2.232 1.485 1.292 0 2.101-.536 2.101-1.388 0-.668-.395-1.02-1.477-1.301l-1.661-.431c-1.661-.431-2.469-1.265-2.469-2.531zm13.069 6.917c-2.663 0-4.369-1.89-4.369-4.825 0-2.945 1.706-4.825 4.369-4.825s4.368 1.88 4.368 4.825c0 2.935-1.705 4.825-4.368 4.825zm0-1.362c1.766 0 2.812-1.292 2.812-3.463 0-2.18-1.046-3.463-2.812-3.463-1.767 0-2.813 1.292-2.813 3.463 0 2.171 1.055 3.463 2.813 3.463zm6.336 1.274v-9.475h1.442v1.538h.035c.597-1.072 1.626-1.625 3.093-1.625 2.083 0 3.375 1.335 3.375 3.489V292h-1.529v-5.81c0-1.546-.808-2.39-2.303-2.39-1.555 0-2.584 1.072-2.584 2.698V292h-1.529zm13.438-1.239c1.547 0 2.681-1.002 2.681-2.365v-.764l-2.479.158c-1.423.088-2.162.606-2.162 1.521 0 .878.765 1.45 1.96 1.45zm-.325 1.327c-1.925 0-3.199-1.108-3.199-2.786 0-1.626 1.248-2.584 3.551-2.725l2.654-.158v-.791c0-1.178-.773-1.828-2.171-1.828-1.099 0-1.916.562-2.101 1.459h-1.467c.044-1.6 1.599-2.821 3.586-2.821 2.241 0 3.682 1.195 3.682 3.058V292h-1.45v-1.644h-.035c-.536 1.055-1.723 1.732-3.05 1.732zm7.013-.088v-13.236h1.53V292h-1.53zm4.14 0v-9.475h1.529V292h-1.529zm.764-11.004a.975.975 0 0 1-.966-.967.97.97 0 0 1 .966-.967c.536 0 .967.431.967.967a.97.97 0 0 1-.967.967zM270.2 292v-1.107l5.282-7.076v-.026h-5.273v-1.266h6.996v1.134l-5.247 7.049v.026h5.273V292H270.2zm12.691-8.218c-1.485 0-2.558 1.081-2.663 2.681h5.212c-.035-1.609-1.055-2.681-2.549-2.681zm2.514 5.511h1.511c-.263 1.626-1.907 2.795-3.928 2.795-2.663 0-4.342-1.855-4.342-4.79 0-2.936 1.687-4.86 4.271-4.86 2.532 0 4.114 1.784 4.114 4.649v.598h-6.803v.087c0 1.802 1.107 2.971 2.795 2.971 1.186 0 2.109-.562 2.382-1.45zm7.189 2.795c-2.382 0-4.061-1.934-4.061-4.825 0-2.892 1.67-4.825 4.026-4.825 1.353 0 2.443.588 3.023 1.625h.035v-5.299h1.53V292h-1.459v-1.6h-.027c-.615 1.09-1.696 1.688-3.067 1.688zm.272-8.288c-1.661 0-2.768 1.371-2.768 3.463 0 2.1 1.107 3.463 2.768 3.463 1.644 0 2.76-1.398 2.76-3.463 0-2.057-1.116-3.463-2.76-3.463zm19.379-1.275V292h-1.441v-1.564h-.035c-.589 1.089-1.652 1.652-3.103 1.652-2.074 0-3.366-1.336-3.366-3.489v-6.074h1.529v5.81c0 1.556.818 2.391 2.303 2.391 1.556 0 2.584-1.073 2.584-2.699v-5.502h1.529zm2.285 2.646c0-1.6 1.45-2.725 3.507-2.725 1.925 0 3.384 1.152 3.445 2.707h-1.467c-.097-.887-.871-1.441-2.031-1.441-1.169 0-1.951.554-1.951 1.38 0 .641.51 1.072 1.6 1.345l1.441.36c1.916.483 2.602 1.151 2.602 2.531 0 1.617-1.556 2.76-3.744 2.76-2.039 0-3.516-1.108-3.665-2.751h1.538c.158.967.94 1.485 2.232 1.485 1.292 0 2.101-.536 2.101-1.388 0-.668-.396-1.02-1.477-1.301l-1.661-.431c-1.661-.431-2.47-1.265-2.47-2.531zm12.946-1.389c-1.485 0-2.557 1.081-2.663 2.681h5.212c-.035-1.609-1.055-2.681-2.549-2.681zm2.514 5.511h1.512c-.264 1.626-1.908 2.795-3.929 2.795-2.663 0-4.342-1.855-4.342-4.79 0-2.936 1.688-4.86 4.272-4.86 2.531 0 4.113 1.784 4.113 4.649v.598h-6.803v.087c0 1.802 1.108 2.971 2.795 2.971 1.187 0 2.109-.562 2.382-1.45zm3.594 2.707v-9.475h1.442v1.538h.035c.281-.993 1.186-1.625 2.294-1.625.184 0 .457.026.589.061v1.512c-.123-.053-.528-.106-.791-.106-1.231 0-2.039.897-2.039 2.233V292h-1.53zm14.334.088c-2.381 0-4.06-1.934-4.06-4.825 0-2.892 1.67-4.825 4.025-4.825 1.354 0 2.444.588 3.024 1.625h.035v-5.299h1.529V292h-1.459v-1.6h-.026c-.615 1.09-1.696 1.688-3.068 1.688zm.273-8.288c-1.661 0-2.769 1.371-2.769 3.463 0 2.1 1.108 3.463 2.769 3.463 1.643 0 2.76-1.398 2.76-3.463 0-2.057-1.117-3.463-2.76-3.463zm9.905 6.961c1.547 0 2.681-1.002 2.681-2.365v-.764l-2.479.158c-1.424.088-2.162.606-2.162 1.521 0 .878.765 1.45 1.96 1.45zm-.325 1.327c-1.925 0-3.2-1.108-3.2-2.786 0-1.626 1.248-2.584 3.551-2.725l2.655-.158v-.791c0-1.178-.774-1.828-2.171-1.828-1.099 0-1.916.562-2.101 1.459h-1.468c.044-1.6 1.6-2.821 3.586-2.821 2.241 0 3.683 1.195 3.683 3.058V292h-1.45v-1.644h-.036c-.536 1.055-1.722 1.732-3.049 1.732zm6.767-6.917c0-1.6 1.45-2.725 3.507-2.725 1.925 0 3.384 1.152 3.445 2.707h-1.468c-.096-.887-.87-1.441-2.03-1.441-1.169 0-1.951.554-1.951 1.38 0 .641.51 1.072 1.599 1.345l1.442.36c1.916.483 2.601 1.151 2.601 2.531 0 1.617-1.555 2.76-3.744 2.76-2.039 0-3.515-1.108-3.665-2.751h1.538c.159.967.941 1.485 2.233 1.485 1.292 0 2.1-.536 2.1-1.388 0-.668-.395-1.02-1.476-1.301l-1.661-.431c-1.662-.431-2.47-1.265-2.47-2.531zm9.254 6.829v-13.236h1.53v5.299h.035c.589-1.072 1.643-1.625 3.094-1.625 2.074 0 3.471 1.406 3.471 3.515V292h-1.529v-5.774c0-1.512-.896-2.426-2.399-2.426-1.6 0-2.672 1.09-2.672 2.751V292h-1.53zm15.179.088c-1.38 0-2.47-.598-3.085-1.688h-.035v1.6H384.4v-13.236h1.53v5.299h.035c.598-1.037 1.696-1.625 3.041-1.625 2.382 0 4.008 1.933 4.008 4.825 0 2.9-1.626 4.825-4.043 4.825zm-.273-8.288c-1.652 0-2.777 1.415-2.777 3.463 0 2.056 1.125 3.463 2.777 3.463 1.661 0 2.751-1.354 2.751-3.463 0-2.101-1.09-3.463-2.751-3.463zm10.195 8.288c-2.663 0-4.368-1.89-4.368-4.825 0-2.945 1.705-4.825 4.368-4.825 2.663 0 4.368 1.88 4.368 4.825 0 2.935-1.705 4.825-4.368 4.825zm0-1.362c1.767 0 2.813-1.292 2.813-3.463 0-2.18-1.046-3.463-2.813-3.463-1.766 0-2.812 1.292-2.812 3.463 0 2.171 1.054 3.463 2.812 3.463zm9.431.035c1.546 0 2.68-1.002 2.68-2.365v-.764l-2.478.158c-1.424.088-2.162.606-2.162 1.521 0 .878.764 1.45 1.96 1.45zm-.326 1.327c-1.924 0-3.199-1.108-3.199-2.786 0-1.626 1.248-2.584 3.551-2.725l2.654-.158v-.791c0-1.178-.773-1.828-2.171-1.828-1.098 0-1.916.562-2.1 1.459h-1.468c.044-1.6 1.6-2.821 3.586-2.821 2.241 0 3.683 1.195 3.683 3.058V292h-1.451v-1.644h-.035c-.536 1.055-1.722 1.732-3.05 1.732zm6.926-.088v-9.475h1.441v1.538h.035c.282-.993 1.187-1.625 2.294-1.625.185 0 .457.026.589.061v1.512c-.123-.053-.527-.106-.791-.106-1.23 0-2.039.897-2.039 2.233V292h-1.529zm9.228.088c-2.382 0-4.061-1.934-4.061-4.825 0-2.892 1.67-4.825 4.026-4.825 1.353 0 2.443.588 3.023 1.625h.035v-5.299h1.53V292h-1.459v-1.6h-.027c-.615 1.09-1.696 1.688-3.067 1.688zm.272-8.288c-1.661 0-2.768 1.371-2.768 3.463 0 2.1 1.107 3.463 2.768 3.463 1.644 0 2.76-1.398 2.76-3.463 0-2.057-1.116-3.463-2.76-3.463zm15.073 8.288c-2.382 0-4.061-1.934-4.061-4.825 0-2.892 1.67-4.825 4.026-4.825 1.353 0 2.443.588 3.023 1.625h.035v-5.299h1.53V292h-1.459v-1.6h-.027c-.615 1.09-1.696 1.688-3.067 1.688zm.272-8.288c-1.661 0-2.768 1.371-2.768 3.463 0 2.1 1.107 3.463 2.768 3.463 1.644 0 2.76-1.398 2.76-3.463 0-2.057-1.116-3.463-2.76-3.463zm6.9 8.2v-9.475h1.529V292h-1.529zm.764-11.004a.976.976 0 0 1-.967-.967.97.97 0 0 1 .967-.967c.536 0 .967.431.967.967a.97.97 0 0 1-.967.967zm3.129 4.175c0-1.6 1.45-2.725 3.507-2.725 1.924 0 3.383 1.152 3.445 2.707h-1.468c-.097-.887-.87-1.441-2.03-1.441-1.169 0-1.951.554-1.951 1.38 0 .641.509 1.072 1.599 1.345l1.442.36c1.916.483 2.601 1.151 2.601 2.531 0 1.617-1.555 2.76-3.744 2.76-2.039 0-3.516-1.108-3.665-2.751h1.538c.158.967.941 1.485 2.233 1.485 1.292 0 2.1-.536 2.1-1.388 0-.668-.395-1.02-1.476-1.301l-1.662-.431c-1.661-.431-2.469-1.265-2.469-2.531zm13.719-2.733c2.417 0 4.061 1.933 4.061 4.825 0 2.891-1.635 4.825-4.026 4.825-1.344 0-2.426-.589-3.023-1.626h-.035v4.702h-1.53v-12.639h1.451v1.538h.035c.553-.984 1.758-1.625 3.067-1.625zm-.281 8.288c1.67 0 2.777-1.363 2.777-3.463 0-2.092-1.107-3.463-2.777-3.463-1.635 0-2.751 1.406-2.751 3.463 0 2.065 1.116 3.463 2.751 3.463zm6.407 1.274v-13.236h1.529V292h-1.529zm7.145-1.239c1.547 0 2.681-1.002 2.681-2.365v-.764l-2.479.158c-1.424.088-2.162.606-2.162 1.521 0 .878.765 1.45 1.96 1.45zm-.325 1.327c-1.925 0-3.2-1.108-3.2-2.786 0-1.626 1.249-2.584 3.551-2.725l2.655-.158v-.791c0-1.178-.774-1.828-2.171-1.828-1.099 0-1.916.562-2.101 1.459h-1.468c.044-1.6 1.6-2.821 3.586-2.821 2.241 0 3.683 1.195 3.683 3.058V292h-1.45v-1.644h-.036c-.536 1.055-1.722 1.732-3.049 1.732zm7.734 3.349a4.2 4.2 0 0 1-.668-.062v-1.292c.176.035.422.053.624.053.879 0 1.353-.422 1.74-1.565l.185-.562-3.507-9.484h1.626l2.654 7.919h.035l2.654-7.919h1.609l-3.709 10.055c-.809 2.197-1.565 2.857-3.243 2.857zm8.657-3.437v-9.475h1.529V292h-1.529zm.764-11.004a.976.976 0 0 1-.967-.967.97.97 0 0 1 .967-.967c.536 0 .967.431.967.967a.97.97 0 0 1-.967.967zM497.669 292v-9.475h1.441v1.538h.036c.597-1.072 1.626-1.625 3.093-1.625 2.083 0 3.375 1.335 3.375 3.489V292h-1.529v-5.81c0-1.546-.809-2.39-2.303-2.39-1.555 0-2.584 1.072-2.584 2.698V292h-1.529zm14.176-1.362c1.662 0 2.787-1.38 2.787-3.41 0-2.04-1.125-3.428-2.787-3.428-1.652 0-2.733 1.353-2.733 3.428 0 2.065 1.081 3.41 2.733 3.41zm.027 4.746c-2.145 0-3.7-1.037-3.92-2.611h1.591c.228.791 1.169 1.284 2.417 1.284 1.634 0 2.672-.853 2.672-2.198v-1.485h-.036c-.597 1.028-1.713 1.626-3.041 1.626-2.399 0-4.007-1.907-4.007-4.772 0-2.892 1.608-4.79 4.043-4.79 1.335 0 2.452.588 3.084 1.625h.027v-1.538h1.459v9.211c0 2.268-1.626 3.648-4.289 3.648zM196.287 320v-9.475h1.442v1.538h.035c.281-.993 1.186-1.625 2.294-1.625.184 0 .457.026.588.061v1.512c-.123-.053-.527-.106-.791-.106-1.23 0-2.039.897-2.039 2.233V320h-1.529zm9.413-8.218c-1.486 0-2.558 1.081-2.663 2.681h5.212c-.035-1.609-1.055-2.681-2.549-2.681zm2.514 5.511h1.511c-.263 1.626-1.907 2.795-3.928 2.795-2.664 0-4.342-1.855-4.342-4.79 0-2.936 1.687-4.86 4.271-4.86 2.531 0 4.113 1.784 4.113 4.649v.598h-6.802v.087c0 1.802 1.107 2.971 2.795 2.971 1.186 0 2.109-.562 2.382-1.45zm3.682 2.707v-13.236h1.529V320h-1.529zm7.83-8.218c-1.485 0-2.557 1.081-2.663 2.681h5.212c-.035-1.609-1.054-2.681-2.549-2.681zm2.514 5.511h1.512c-.264 1.626-1.907 2.795-3.929 2.795-2.663 0-4.342-1.855-4.342-4.79 0-2.936 1.688-4.86 4.272-4.86 2.531 0 4.113 1.784 4.113 4.649v.598h-6.803v.087c0 1.802 1.108 2.971 2.795 2.971 1.187 0 2.11-.562 2.382-1.45zm11.32-6.768L230.062 320h-1.547l-3.498-9.475h1.6l2.654 7.823h.035l2.663-7.823h1.591zm4.535 8.236c1.547 0 2.681-1.002 2.681-2.365v-.764l-2.479.158c-1.424.088-2.162.606-2.162 1.521 0 .878.765 1.45 1.96 1.45zm-.325 1.327c-1.925 0-3.199-1.108-3.199-2.786 0-1.626 1.248-2.584 3.55-2.725l2.655-.158v-.791c0-1.178-.774-1.828-2.171-1.828-1.099 0-1.916.562-2.101 1.459h-1.468c.044-1.6 1.6-2.821 3.586-2.821 2.241 0 3.683 1.195 3.683 3.058V320h-1.45v-1.644h-.035c-.537 1.055-1.723 1.732-3.05 1.732zm6.925-.088v-9.475h1.442v1.538h.035c.597-1.072 1.626-1.625 3.093-1.625 2.083 0 3.375 1.335 3.375 3.489V320h-1.529v-5.81c0-1.546-.808-2.39-2.303-2.39-1.555 0-2.584 1.072-2.584 2.698V320h-1.529zm10.846-11.61h1.529v2.135h1.846v1.266h-1.846v5.687c0 .87.369 1.265 1.178 1.265.184 0 .553-.026.659-.044v1.292c-.185.044-.624.079-.985.079-1.714 0-2.381-.712-2.381-2.531v-5.748h-1.319v-1.266h1.319v-2.135zM265.726 320v-9.475h1.53V320h-1.53zm.765-11.004a.976.976 0 0 1-.967-.967.97.97 0 0 1 .967-.967c.536 0 .967.431.967.967a.97.97 0 0 1-.967.967zM269.778 320v-9.475h1.441v1.538h.035c.598-1.072 1.626-1.625 3.094-1.625 2.083 0 3.375 1.335 3.375 3.489V320h-1.529v-5.81c0-1.546-.809-2.39-2.303-2.39-1.556 0-2.584 1.072-2.584 2.698V320h-1.529zm10.845 0v-8.209h-1.318v-1.266h1.318v-.879c0-1.749.765-2.531 2.523-2.531.298 0 .562.027.852.079v1.266a3.619 3.619 0 0 0-.712-.07c-.791 0-1.125.369-1.134 1.256v.879h1.846v1.266h-1.846V320h-1.529zm8.859.088c-2.663 0-4.368-1.89-4.368-4.825 0-2.945 1.705-4.825 4.368-4.825 2.663 0 4.368 1.88 4.368 4.825 0 2.935-1.705 4.825-4.368 4.825zm0-1.362c1.767 0 2.813-1.292 2.813-3.463 0-2.18-1.046-3.463-2.813-3.463-1.766 0-2.812 1.292-2.812 3.463 0 2.171 1.054 3.463 2.812 3.463zm6.337 1.274v-9.475h1.441v1.538h.035c.281-.993 1.187-1.625 2.294-1.625.185 0 .457.026.589.061v1.512c-.123-.053-.527-.106-.791-.106-1.23 0-2.039.897-2.039 2.233V320h-1.529zm6.073 0v-9.475h1.441v1.538h.035c.448-1.01 1.459-1.625 2.69-1.625 1.283 0 2.241.65 2.654 1.792h.035c.536-1.125 1.652-1.792 2.98-1.792 1.872 0 3.084 1.212 3.084 3.093V320h-1.529v-6.117c0-1.31-.729-2.083-1.995-2.083s-2.171.94-2.171 2.241V320h-1.529v-6.302c0-1.142-.782-1.898-1.969-1.898-1.265 0-2.197.993-2.197 2.32V320h-1.529zm18.412-1.239c1.547 0 2.681-1.002 2.681-2.365v-.764l-2.479.158c-1.423.088-2.162.606-2.162 1.521 0 .878.765 1.45 1.96 1.45zm-.325 1.327c-1.925 0-3.199-1.108-3.199-2.786 0-1.626 1.248-2.584 3.551-2.725l2.654-.158v-.791c0-1.178-.773-1.828-2.171-1.828-1.099 0-1.916.562-2.101 1.459h-1.467c.044-1.6 1.599-2.821 3.586-2.821 2.241 0 3.682 1.195 3.682 3.058V320h-1.45v-1.644h-.035c-.536 1.055-1.723 1.732-3.05 1.732zm7.427-11.698h1.529v2.135h1.846v1.266h-1.846v5.687c0 .87.369 1.265 1.178 1.265.184 0 .553-.026.659-.044v1.292c-.185.044-.624.079-.985.079-1.714 0-2.381-.712-2.381-2.531v-5.748h-1.319v-1.266h1.319v-2.135zm5.519 11.61v-9.475h1.529V320h-1.529zm.764-11.004a.975.975 0 0 1-.966-.967.97.97 0 0 1 .966-.967c.536 0 .967.431.967.967a.97.97 0 0 1-.967.967zm7.189 11.092c-2.663 0-4.368-1.89-4.368-4.825 0-2.945 1.705-4.825 4.368-4.825 2.664 0 4.369 1.88 4.369 4.825 0 2.935-1.705 4.825-4.369 4.825zm0-1.362c1.767 0 2.813-1.292 2.813-3.463 0-2.18-1.046-3.463-2.813-3.463-1.766 0-2.812 1.292-2.812 3.463 0 2.171 1.055 3.463 2.812 3.463zm6.337 1.274v-9.475h1.441v1.538h.036c.597-1.072 1.626-1.625 3.093-1.625 2.083 0 3.375 1.335 3.375 3.489V320h-1.529v-5.81c0-1.546-.809-2.39-2.303-2.39-1.555 0-2.584 1.072-2.584 2.698V320h-1.529zm11.592.088a.991.991 0 0 1-1.002-1.002.986.986 0 0 1 1.002-1.002.98.98 0 0 1 1.002 1.002.985.985 0 0 1-1.002 1.002z"/><circle cx="543.75" cy="329.75" r="1.75" fill="#A1AEE5" opacity=".4"/><circle cx="543.75" cy="271.75" r="1.75" fill="#A1AEE5" opacity=".4"/><circle cx="168.75" cy="329.75" r="1.75" fill="#A1AEE5" opacity=".4"/><circle cx="168.75" cy="271.75" r="1.75" fill="#A1AEE5" opacity=".4"/><g filter="url(#g)"><rect width="409" height="84" y="513" fill="#A1AEE5" fill-opacity=".05" rx="15"/><rect width="409" height="84" y="513" fill="url(#h)" fill-opacity=".2" rx="15"/><rect width="408" height="83" x=".5" y="513.5" stroke="#A1AEE5" stroke-opacity=".24" rx="14.5"/></g><path fill="#A1AEE5" d="M49.358 547h-1.582v-11.259H43.69v-1.424h9.756v1.424h-4.087V547zm6.012 0v-13.236h1.53v5.299h.034c.59-1.072 1.644-1.625 3.094-1.625 2.074 0 3.472 1.406 3.472 3.515V547h-1.53v-5.774c0-1.512-.896-2.426-2.4-2.426-1.599 0-2.67 1.09-2.67 2.751V547h-1.53zm10.608 0v-9.475h1.53V547h-1.53zm.765-11.004a.975.975 0 0 1-.967-.967.97.97 0 0 1 .967-.967c.536 0 .966.431.966.967a.97.97 0 0 1-.966.967zM70.029 547v-9.475h1.442v1.538h.035c.281-.993 1.186-1.625 2.294-1.625a2.9 2.9 0 0 1 .589.061v1.512c-.123-.053-.528-.106-.791-.106-1.23 0-2.04.897-2.04 2.233V547H70.03zm9.228.088c-2.382 0-4.06-1.934-4.06-4.825 0-2.892 1.67-4.825 4.025-4.825 1.354 0 2.444.588 3.024 1.625h.035v-5.299h1.53V547h-1.46v-1.6h-.026c-.615 1.09-1.697 1.688-3.068 1.688zm.273-8.288c-1.661 0-2.769 1.371-2.769 3.463 0 2.1 1.108 3.463 2.769 3.463 1.643 0 2.76-1.398 2.76-3.463 0-2.057-1.117-3.463-2.76-3.463zm12.515 3.911H86.28v-1.424h5.766v1.424zm6.925-5.273c2.418 0 4.061 1.933 4.061 4.825 0 2.891-1.635 4.825-4.025 4.825-1.345 0-2.426-.589-3.024-1.626h-.035v4.702h-1.53v-12.639h1.451v1.538h.035c.554-.984 1.758-1.625 3.067-1.625zm-.28 8.288c1.669 0 2.777-1.363 2.777-3.463 0-2.092-1.108-3.463-2.778-3.463-1.634 0-2.75 1.406-2.75 3.463 0 2.065 1.116 3.463 2.75 3.463zm9.412.035c1.547 0 2.681-1.002 2.681-2.365v-.764l-2.479.158c-1.424.088-2.162.606-2.162 1.521 0 .878.765 1.45 1.96 1.45zm-.325 1.327c-1.925 0-3.199-1.108-3.199-2.786 0-1.626 1.248-2.584 3.55-2.725l2.655-.158v-.791c0-1.178-.774-1.828-2.171-1.828-1.099 0-1.916.562-2.101 1.459h-1.468c.044-1.6 1.6-2.821 3.586-2.821 2.242 0 3.683 1.195 3.683 3.058V547h-1.45v-1.644h-.035c-.536 1.055-1.723 1.732-3.05 1.732zm6.925-.088v-9.475h1.442v1.538h.035c.281-.993 1.186-1.625 2.294-1.625.184 0 .457.026.589.061v1.512c-.123-.053-.528-.106-.791-.106-1.231 0-2.039.897-2.039 2.233V547h-1.53zm6.574-11.61h1.529v2.135h1.846v1.266h-1.846v5.687c0 .87.37 1.265 1.178 1.265.185 0 .554-.026.659-.044v1.292c-.184.044-.624.079-.984.079-1.714 0-2.382-.712-2.382-2.531v-5.748h-1.318v-1.266h1.318v-2.135zm6.24 15.047c-.193 0-.483-.027-.668-.062v-1.292c.176.035.422.053.624.053.879 0 1.354-.422 1.74-1.565l.185-.562-3.507-9.484h1.626l2.654 7.919h.035l2.655-7.919h1.608l-3.709 10.055c-.808 2.197-1.564 2.857-3.243 2.857zM140.84 547v-9.475h1.529V547h-1.529zm.764-11.004a.976.976 0 0 1-.967-.967.97.97 0 0 1 .967-.967c.536 0 .967.431.967.967a.97.97 0 0 1-.967.967zM144.891 547v-9.475h1.441v1.538h.036c.597-1.072 1.625-1.625 3.093-1.625 2.083 0 3.375 1.335 3.375 3.489V547h-1.529v-5.81c0-1.546-.809-2.39-2.303-2.39-1.555 0-2.584 1.072-2.584 2.698V547h-1.529zm10.845-11.61h1.53v2.135h1.845v1.266h-1.845v5.687c0 .87.369 1.265 1.177 1.265.185 0 .554-.026.66-.044v1.292c-.185.044-.625.079-.985.079-1.714 0-2.382-.712-2.382-2.531v-5.748h-1.318v-1.266h1.318v-2.135zm8.947 3.392c-1.485 0-2.557 1.081-2.663 2.681h5.212c-.035-1.609-1.055-2.681-2.549-2.681zm2.514 5.511h1.512c-.264 1.626-1.908 2.795-3.929 2.795-2.663 0-4.342-1.855-4.342-4.79 0-2.936 1.688-4.86 4.272-4.86 2.531 0 4.113 1.784 4.113 4.649v.598h-6.803v.087c0 1.802 1.108 2.971 2.795 2.971 1.187 0 2.109-.562 2.382-1.45zm7.426 1.345c1.661 0 2.786-1.38 2.786-3.41 0-2.04-1.125-3.428-2.786-3.428-1.652 0-2.733 1.353-2.733 3.428 0 2.065 1.081 3.41 2.733 3.41zm.027 4.746c-2.145 0-3.701-1.037-3.92-2.611h1.591c.228.791 1.168 1.284 2.417 1.284 1.634 0 2.671-.853 2.671-2.198v-1.485h-.035c-.597 1.028-1.714 1.626-3.041 1.626-2.399 0-4.008-1.907-4.008-4.772 0-2.892 1.609-4.79 4.043-4.79 1.336 0 2.453.588 3.085 1.625h.027v-1.538h1.459v9.211c0 2.268-1.626 3.648-4.289 3.648zm6.732-3.384v-9.475h1.441v1.538h.035c.282-.993 1.187-1.625 2.294-1.625.185 0 .457.026.589.061v1.512c-.123-.053-.527-.106-.791-.106-1.23 0-2.039.897-2.039 2.233V547h-1.529zm9.166-1.239c1.547 0 2.681-1.002 2.681-2.365v-.764l-2.478.158c-1.424.088-2.163.606-2.163 1.521 0 .878.765 1.45 1.96 1.45zm-.325 1.327c-1.925 0-3.199-1.108-3.199-2.786 0-1.626 1.248-2.584 3.551-2.725l2.654-.158v-.791c0-1.178-.773-1.828-2.171-1.828-1.099 0-1.916.562-2.1 1.459h-1.468c.044-1.6 1.599-2.821 3.586-2.821 2.241 0 3.682 1.195 3.682 3.058V547h-1.45v-1.644h-.035c-.536 1.055-1.723 1.732-3.05 1.732zm7.427-11.698h1.529v2.135h1.846v1.266h-1.846v5.687c0 .87.369 1.265 1.178 1.265.184 0 .553-.026.659-.044v1.292c-.185.044-.624.079-.985.079-1.713 0-2.381-.712-2.381-2.531v-5.748h-1.319v-1.266h1.319v-2.135zm5.519 11.61v-9.475h1.529V547h-1.529zm.764-11.004a.975.975 0 0 1-.966-.967.97.97 0 0 1 .966-.967c.537 0 .967.431.967.967 0 .528-.43.967-.967.967zm7.189 11.092c-2.663 0-4.368-1.89-4.368-4.825 0-2.945 1.705-4.825 4.368-4.825 2.664 0 4.369 1.88 4.369 4.825 0 2.935-1.705 4.825-4.369 4.825zm0-1.362c1.767 0 2.813-1.292 2.813-3.463 0-2.18-1.046-3.463-2.813-3.463-1.766 0-2.812 1.292-2.812 3.463 0 2.171 1.055 3.463 2.812 3.463zm6.337 1.274v-9.475h1.441v1.538h.036c.597-1.072 1.626-1.625 3.093-1.625 2.083 0 3.375 1.335 3.375 3.489V547h-1.529v-5.81c0-1.546-.809-2.39-2.303-2.39-1.555 0-2.584 1.072-2.584 2.698V547h-1.529zm18.913.088c-2.663 0-4.368-1.89-4.368-4.825 0-2.945 1.705-4.825 4.368-4.825 2.664 0 4.369 1.88 4.369 4.825 0 2.935-1.705 4.825-4.369 4.825zm0-1.362c1.767 0 2.813-1.292 2.813-3.463 0-2.18-1.046-3.463-2.813-3.463-1.766 0-2.812 1.292-2.812 3.463 0 2.171 1.055 3.463 2.812 3.463zm10.89-8.288c2.417 0 4.06 1.933 4.06 4.825 0 2.891-1.634 4.825-4.025 4.825-1.345 0-2.426-.589-3.024-1.626h-.035v4.702h-1.529v-12.639h1.45v1.538h.035c.554-.984 1.758-1.625 3.068-1.625zm-.282 8.288c1.67 0 2.778-1.363 2.778-3.463 0-2.092-1.108-3.463-2.778-3.463-1.634 0-2.751 1.406-2.751 3.463 0 2.065 1.117 3.463 2.751 3.463zm6.82-10.336h1.53v2.135h1.845v1.266h-1.845v5.687c0 .87.369 1.265 1.177 1.265.185 0 .554-.026.66-.044v1.292c-.185.044-.624.079-.985.079-1.714 0-2.382-.712-2.382-2.531v-5.748h-1.318v-1.266h1.318v-2.135zm5.52 11.61v-9.475h1.529V547h-1.529zm.764-11.004a.976.976 0 0 1-.967-.967.97.97 0 0 1 .967-.967c.536 0 .967.431.967.967a.97.97 0 0 1-.967.967zm7.189 11.092c-2.663 0-4.368-1.89-4.368-4.825 0-2.945 1.705-4.825 4.368-4.825 2.663 0 4.369 1.88 4.369 4.825 0 2.935-1.706 4.825-4.369 4.825zm0-1.362c1.767 0 2.813-1.292 2.813-3.463 0-2.18-1.046-3.463-2.813-3.463-1.766 0-2.812 1.292-2.812 3.463 0 2.171 1.055 3.463 2.812 3.463zM273.61 547v-9.475h1.441v1.538h.035c.598-1.072 1.626-1.625 3.094-1.625 2.083 0 3.375 1.335 3.375 3.489V547h-1.529v-5.81c0-1.546-.809-2.39-2.303-2.39-1.555 0-2.584 1.072-2.584 2.698V547h-1.529zm10.186-6.829c0-1.6 1.45-2.725 3.507-2.725 1.925 0 3.384 1.152 3.445 2.707h-1.468c-.096-.887-.87-1.441-2.03-1.441-1.169 0-1.951.554-1.951 1.38 0 .641.51 1.072 1.6 1.345l1.441.36c1.916.483 2.602 1.151 2.602 2.531 0 1.617-1.556 2.76-3.745 2.76-2.039 0-3.515-1.108-3.665-2.751h1.539c.158.967.94 1.485 2.232 1.485 1.292 0 2.101-.536 2.101-1.388 0-.668-.396-1.02-1.477-1.301l-1.661-.431c-1.661-.431-2.47-1.265-2.47-2.531zm18.052 9.264h-1.345c-.984-1.231-2.373-3.639-2.373-7.7 0-4.069 1.336-5.976 2.461-7.409h1.283c-.747.87-2.188 3.366-2.188 7.392 0 4.025 1.354 6.319 2.162 7.717zm5.511-10.653c-1.486 0-2.558 1.081-2.664 2.681h5.212c-.035-1.609-1.054-2.681-2.548-2.681zm2.513 5.511h1.512c-.264 1.626-1.907 2.795-3.929 2.795-2.663 0-4.342-1.855-4.342-4.79 0-2.936 1.688-4.86 4.272-4.86 2.531 0 4.113 1.784 4.113 4.649v.598h-6.803v.087c0 1.802 1.108 2.971 2.795 2.971 1.187 0 2.11-.562 2.382-1.45zm4.843 2.795a.99.99 0 0 1-1.002-1.002.985.985 0 0 1 1.002-1.002.98.98 0 0 1 1.002 1.002.986.986 0 0 1-1.002 1.002zm6.987-1.45c1.661 0 2.786-1.38 2.786-3.41 0-2.04-1.125-3.428-2.786-3.428-1.653 0-2.734 1.353-2.734 3.428 0 2.065 1.081 3.41 2.734 3.41zm.026 4.746c-2.145 0-3.7-1.037-3.92-2.611h1.591c.228.791 1.169 1.284 2.417 1.284 1.635 0 2.672-.853 2.672-2.198v-1.485h-.035c-.598 1.028-1.714 1.626-3.041 1.626-2.4 0-4.008-1.907-4.008-4.772 0-2.892 1.608-4.79 4.043-4.79 1.336 0 2.452.588 3.085 1.625h.026v-1.538h1.459v9.211c0 2.268-1.626 3.648-4.289 3.648zm7.98-3.296a.991.991 0 0 1-1.002-1.002.986.986 0 0 1 1.002-1.002.98.98 0 0 1 1.002 1.002.986.986 0 0 1-1.002 1.002zm4.702 2.171h-1.187l.879-4.034h1.626l-1.318 4.034zM49.701 575.211c-3.498 0-5.713-2.54-5.713-6.557 0-3.981 2.242-6.548 5.713-6.548 2.76 0 4.86 1.679 5.265 4.21h-1.6c-.404-1.661-1.854-2.751-3.665-2.751-2.478 0-4.087 2.004-4.087 5.089 0 3.112 1.591 5.098 4.096 5.098 1.863 0 3.2-.897 3.656-2.443h1.6c-.58 2.504-2.461 3.902-5.265 3.902zm9.079-11.487v4.86h3.12c1.626 0 2.549-.879 2.549-2.435 0-1.52-.984-2.425-2.62-2.425h-3.05zm0 6.257V575h-1.582v-12.683h4.843c2.443 0 4.043 1.495 4.043 3.78 0 1.766-.958 3.137-2.55 3.638L66.47 575h-1.854l-2.716-5.019h-3.12zm22.157-7.664V575H79.46v-9.773h-.06l-4.043 9.685H74.02l-4.043-9.685h-.062V575H68.44v-12.683h1.837l4.377 10.582h.07l4.377-10.582h1.837zm3.647 14.942h-1.187l.88-4.034h1.625l-1.318 4.034zm13.288-11.821c2.417 0 4.061 1.933 4.061 4.825 0 2.891-1.635 4.825-4.026 4.825-1.344 0-2.425-.589-3.023-1.626h-.035v4.702h-1.53v-12.639h1.45v1.538h.036c.554-.984 1.758-1.625 3.067-1.625zm-.281 8.288c1.67 0 2.777-1.363 2.777-3.463 0-2.092-1.107-3.463-2.777-3.463-1.635 0-2.751 1.406-2.751 3.463 0 2.065 1.116 3.463 2.751 3.463zm9.413.035c1.547 0 2.68-1.002 2.68-2.365v-.764l-2.478.158c-1.424.088-2.162.606-2.162 1.521 0 .878.764 1.45 1.96 1.45zm-.325 1.327c-1.925 0-3.2-1.108-3.2-2.786 0-1.626 1.248-2.584 3.551-2.725l2.654-.158v-.791c0-1.178-.773-1.828-2.17-1.828-1.099 0-1.917.562-2.101 1.459h-1.468c.044-1.6 1.6-2.821 3.586-2.821 2.241 0 3.683 1.195 3.683 3.058V575h-1.45v-1.644h-.036c-.536 1.055-1.722 1.732-3.049 1.732zm7.734 3.349a4.2 4.2 0 0 1-.668-.062v-1.292c.175.035.421.053.624.053.879 0 1.353-.422 1.74-1.565l.184-.562-3.506-9.484h1.626l2.654 7.919h.035l2.654-7.919h1.609l-3.709 10.055c-.809 2.197-1.565 2.857-3.243 2.857zm8.569-3.437v-9.475h1.441v1.538h.035c.448-1.01 1.459-1.625 2.69-1.625 1.283 0 2.241.65 2.654 1.792h.035c.536-1.125 1.652-1.792 2.98-1.792 1.872 0 3.084 1.212 3.084 3.093V575h-1.529v-6.117c0-1.31-.729-2.083-1.995-2.083s-2.171.94-2.171 2.241V575h-1.529v-6.302c0-1.142-.782-1.898-1.969-1.898-1.266 0-2.197.993-2.197 2.32V575h-1.529zm19.098-8.218c-1.486 0-2.558 1.081-2.663 2.681h5.212c-.035-1.609-1.055-2.681-2.549-2.681zm2.514 5.511h1.511c-.263 1.626-1.907 2.795-3.928 2.795-2.664 0-4.342-1.855-4.342-4.79 0-2.936 1.687-4.86 4.271-4.86 2.531 0 4.113 1.784 4.113 4.649v.598h-6.802v.087c0 1.802 1.107 2.971 2.795 2.971 1.186 0 2.109-.562 2.382-1.45zm3.594 2.707v-9.475h1.441v1.538h.035c.598-1.072 1.626-1.625 3.094-1.625 2.083 0 3.375 1.335 3.375 3.489V575h-1.529v-5.81c0-1.546-.809-2.39-2.303-2.39-1.555 0-2.584 1.072-2.584 2.698V575h-1.529zm10.845-11.61h1.53v2.135h1.845v1.266h-1.845v5.687c0 .87.369 1.265 1.177 1.265.185 0 .554-.026.659-.044v1.292c-.184.044-.624.079-.984.079-1.714 0-2.382-.712-2.382-2.531v-5.748h-1.318v-1.266h1.318v-2.135zm9.94 4.781c0-1.6 1.45-2.725 3.507-2.725 1.925 0 3.384 1.152 3.445 2.707h-1.468c-.096-.887-.87-1.441-2.03-1.441-1.169 0-1.951.554-1.951 1.38 0 .641.51 1.072 1.6 1.345l1.441.36c1.916.483 2.601 1.151 2.601 2.531 0 1.617-1.555 2.76-3.744 2.76-2.039 0-3.515-1.108-3.665-2.751h1.538c.159.967.941 1.485 2.233 1.485 1.292 0 2.1-.536 2.1-1.388 0-.668-.395-1.02-1.476-1.301l-1.661-.431c-1.661-.431-2.47-1.265-2.47-2.531zm9.975 10.266c-.193 0-.483-.027-.668-.062v-1.292c.176.035.422.053.624.053.879 0 1.354-.422 1.74-1.565l.185-.562-3.507-9.484h1.626l2.654 7.919h.036l2.654-7.919h1.608l-3.709 10.055c-.808 2.197-1.564 2.857-3.243 2.857zm8.411-10.266c0-1.6 1.45-2.725 3.507-2.725 1.925 0 3.384 1.152 3.445 2.707h-1.468c-.096-.887-.87-1.441-2.03-1.441-1.169 0-1.951.554-1.951 1.38 0 .641.51 1.072 1.6 1.345l1.441.36c1.916.483 2.601 1.151 2.601 2.531 0 1.617-1.555 2.76-3.744 2.76-2.039 0-3.515-1.108-3.665-2.751h1.538c.159.967.941 1.485 2.233 1.485 1.292 0 2.1-.536 2.1-1.388 0-.668-.395-1.02-1.476-1.301l-1.661-.431c-1.661-.431-2.47-1.265-2.47-2.531zm9.668-4.781h1.529v2.135h1.846v1.266h-1.846v5.687c0 .87.369 1.265 1.178 1.265.184 0 .553-.026.659-.044v1.292c-.185.044-.624.079-.985.079-1.713 0-2.381-.712-2.381-2.531v-5.748h-1.319v-1.266h1.319v-2.135zm8.947 3.392c-1.486 0-2.558 1.081-2.664 2.681h5.212c-.035-1.609-1.054-2.681-2.548-2.681zm2.513 5.511h1.512c-.264 1.626-1.907 2.795-3.929 2.795-2.663 0-4.342-1.855-4.342-4.79 0-2.936 1.688-4.86 4.272-4.86 2.531 0 4.113 1.784 4.113 4.649v.598h-6.803v.087c0 1.802 1.108 2.971 2.795 2.971 1.187 0 2.11-.562 2.382-1.45zm3.595 2.707v-9.475h1.441v1.538h.035c.448-1.01 1.459-1.625 2.69-1.625 1.283 0 2.241.65 2.654 1.792h.035c.536-1.125 1.652-1.792 2.98-1.792 1.872 0 3.084 1.212 3.084 3.093V575h-1.529v-6.117c0-1.31-.729-2.083-1.995-2.083s-2.171.94-2.171 2.241V575h-1.529v-6.302c0-1.142-.782-1.898-1.969-1.898-1.266 0-2.197.993-2.197 2.32V575h-1.529zm15.16-6.829c0-1.6 1.451-2.725 3.507-2.725 1.925 0 3.384 1.152 3.445 2.707h-1.467c-.097-.887-.87-1.441-2.031-1.441-1.169 0-1.951.554-1.951 1.38 0 .641.51 1.072 1.6 1.345l1.441.36c1.916.483 2.602 1.151 2.602 2.531 0 1.617-1.556 2.76-3.744 2.76-2.039 0-3.516-1.108-3.665-2.751h1.538c.158.967.94 1.485 2.232 1.485 1.292 0 2.101-.536 2.101-1.388 0-.668-.396-1.02-1.477-1.301l-1.661-.431c-1.661-.431-2.47-1.265-2.47-2.531zm8.455 9.264c.809-1.398 2.162-3.692 2.162-7.717 0-4.026-1.424-6.522-2.18-7.392h1.284c1.125 1.433 2.461 3.34 2.461 7.409 0 4.061-1.398 6.469-2.382 7.7h-1.345zm7.91-2.347a.99.99 0 0 1-1.002-1.002.985.985 0 0 1 1.002-1.002.98.98 0 0 1 1.002 1.002.986.986 0 0 1-1.002 1.002z"/><circle cx="391.75" cy="584.75" r="1.75" fill="#A1AEE5" opacity=".4"/><circle cx="391.75" cy="526.75" r="1.75" fill="#A1AEE5" opacity=".4"/><circle cx="16.75" cy="584.75" r="1.75" fill="#A1AEE5" opacity=".4"/><circle cx="16.75" cy="526.75" r="1.75" fill="#A1AEE5" opacity=".4"/><g filter="url(#i)"><rect width="409" height="84" x="257" fill="#A1AEE5" fill-opacity=".05" rx="15"/><rect width="409" height="84" x="257" fill="url(#j)" fill-opacity=".2" rx="15"/><rect width="408" height="83" x="257.5" y=".5" stroke="#A1AEE5" stroke-opacity=".24" rx="14.5"/></g><path fill="#A1AEE5" d="M303.062 21.317v8.13c0 1.916 1.257 3.305 3.455 3.305 2.197 0 3.454-1.389 3.454-3.305v-8.13h1.582v8.236c0 2.707-1.89 4.658-5.036 4.658-3.147 0-5.037-1.951-5.037-4.658v-8.236h1.582zm10.96 5.854c0-1.6 1.45-2.725 3.507-2.725 1.925 0 3.384 1.152 3.445 2.707h-1.468c-.096-.887-.87-1.441-2.03-1.441-1.169 0-1.951.554-1.951 1.38 0 .641.51 1.072 1.6 1.345l1.441.36c1.916.483 2.602 1.151 2.602 2.531 0 1.617-1.556 2.76-3.745 2.76-2.039 0-3.515-1.108-3.665-2.751h1.539c.158.967.94 1.485 2.232 1.485 1.292 0 2.101-.536 2.101-1.388 0-.668-.396-1.02-1.477-1.301l-1.661-.43c-1.661-.431-2.47-1.267-2.47-2.532zm12.946-1.389c-1.485 0-2.558 1.081-2.663 2.68h5.212c-.035-1.607-1.055-2.68-2.549-2.68zm2.514 5.511h1.511c-.263 1.626-1.907 2.795-3.928 2.795-2.663 0-4.342-1.855-4.342-4.79 0-2.936 1.687-4.86 4.271-4.86 2.532 0 4.114 1.784 4.114 4.649v.598h-6.803v.088c0 1.801 1.107 2.97 2.795 2.97 1.186 0 2.109-.562 2.382-1.45zM333.076 34v-9.475h1.441v1.539h.036c.281-.994 1.186-1.627 2.294-1.627.184 0 .457.027.588.062v1.512c-.123-.053-.527-.106-.791-.106-1.23 0-2.039.897-2.039 2.233V34h-1.529zm10.581-6.83c0-1.599 1.451-2.724 3.507-2.724 1.925 0 3.384 1.152 3.446 2.707h-1.468c-.097-.887-.87-1.441-2.03-1.441-1.169 0-1.952.554-1.952 1.38 0 .641.51 1.072 1.6 1.345l1.441.36c1.916.483 2.602 1.151 2.602 2.531 0 1.617-1.556 2.76-3.744 2.76-2.039 0-3.516-1.108-3.665-2.751h1.538c.158.967.94 1.485 2.232 1.485 1.292 0 2.101-.536 2.101-1.388 0-.668-.396-1.02-1.477-1.301l-1.661-.43c-1.661-.431-2.47-1.267-2.47-2.532zm9.255 6.83v-9.475h1.529V34h-1.529zm.765-11.004a.975.975 0 0 1-.967-.967.97.97 0 0 1 .967-.966c.536 0 .966.43.966.966a.97.97 0 0 1-.966.967zm7.118 9.642c1.662 0 2.787-1.38 2.787-3.41 0-2.04-1.125-3.428-2.787-3.428-1.652 0-2.733 1.353-2.733 3.427 0 2.066 1.081 3.41 2.733 3.41zm.027 4.746c-2.145 0-3.7-1.037-3.92-2.61h1.591c.228.79 1.169 1.283 2.417 1.283 1.634 0 2.672-.853 2.672-2.198v-1.485h-.036c-.597 1.028-1.713 1.626-3.041 1.626-2.399 0-4.007-1.907-4.007-4.773 0-2.891 1.608-4.79 4.043-4.79 1.335 0 2.452.59 3.084 1.627h.027v-1.539h1.459v9.211c0 2.268-1.626 3.648-4.289 3.648zM367.554 34v-9.475h1.441v1.539h.035c.598-1.073 1.626-1.627 3.094-1.627 2.083 0 3.375 1.336 3.375 3.49V34h-1.529v-5.81c0-1.546-.809-2.39-2.303-2.39-1.556 0-2.584 1.072-2.584 2.698V34h-1.529zm16.048-4.29h-5.765v-1.423h5.765v1.424zm10.274-5.185V34h-1.441v-1.565h-.035c-.589 1.09-1.653 1.653-3.103 1.653-2.074 0-3.366-1.336-3.366-3.49v-6.073h1.529v5.81c0 1.556.818 2.39 2.303 2.39 1.556 0 2.584-1.072 2.584-2.698v-5.502h1.529zm6.996-.087c2.417 0 4.061 1.933 4.061 4.825 0 2.891-1.635 4.825-4.026 4.825-1.344 0-2.426-.589-3.023-1.626h-.035v4.702h-1.53V24.525h1.451v1.539h.035c.553-.985 1.758-1.627 3.067-1.627zm-.281 8.288c1.67 0 2.777-1.363 2.777-3.463 0-2.092-1.107-3.463-2.777-3.463-1.635 0-2.751 1.406-2.751 3.463 0 2.065 1.116 3.463 2.751 3.463zm14.079.035c1.547 0 2.681-1.002 2.681-2.365v-.764l-2.479.158c-1.423.088-2.162.607-2.162 1.52 0 .88.765 1.45 1.96 1.45zm-.325 1.327c-1.925 0-3.199-1.108-3.199-2.786 0-1.626 1.248-2.584 3.551-2.725l2.654-.158v-.791c0-1.178-.774-1.828-2.171-1.828-1.099 0-1.916.562-2.101 1.459h-1.467c.044-1.6 1.599-2.822 3.586-2.822 2.241 0 3.682 1.196 3.682 3.06V34h-1.45v-1.644h-.035c-.536 1.055-1.723 1.732-3.05 1.732zM421.27 34v-9.475h1.442v1.539h.035c.598-1.073 1.626-1.627 3.094-1.627 2.083 0 3.375 1.336 3.375 3.49V34h-1.53v-5.81c0-1.546-.808-2.39-2.302-2.39-1.556 0-2.584 1.072-2.584 2.698V34h-1.53zm13.94.088c-2.382 0-4.061-1.934-4.061-4.825 0-2.892 1.67-4.826 4.025-4.826 1.354 0 2.444.59 3.024 1.627h.035v-5.3h1.529V34h-1.459v-1.6h-.026c-.615 1.09-1.696 1.688-3.067 1.688zm.272-8.288c-1.661 0-2.769 1.37-2.769 3.463 0 2.1 1.108 3.463 2.769 3.463 1.644 0 2.76-1.398 2.76-3.463 0-2.057-1.116-3.463-2.76-3.463zm11.566 8.2V20.764h1.529V34h-1.529zm7.953.088c-2.663 0-4.368-1.89-4.368-4.825 0-2.945 1.705-4.826 4.368-4.826 2.664 0 4.369 1.881 4.369 4.826 0 2.935-1.705 4.825-4.369 4.825zm0-1.362c1.767 0 2.813-1.292 2.813-3.463 0-2.18-1.046-3.463-2.813-3.463-1.766 0-2.812 1.292-2.812 3.463 0 2.17 1.055 3.463 2.812 3.463zm10.169-.088c1.661 0 2.786-1.38 2.786-3.41 0-2.04-1.125-3.428-2.786-3.428-1.652 0-2.733 1.353-2.733 3.427 0 2.066 1.081 3.41 2.733 3.41zm.026 4.746c-2.144 0-3.7-1.037-3.919-2.61h1.59c.229.79 1.169 1.283 2.417 1.283 1.635 0 2.672-.853 2.672-2.198v-1.485h-.035c-.598 1.028-1.714 1.626-3.041 1.626-2.399 0-4.008-1.907-4.008-4.773 0-2.891 1.609-4.79 4.043-4.79 1.336 0 2.452.59 3.085 1.627h.027v-1.539h1.459v9.211c0 2.268-1.626 3.648-4.29 3.648zm6.82-3.384v-9.475h1.53V34h-1.53zm.765-11.004a.976.976 0 0 1-.967-.967.97.97 0 0 1 .967-.966c.536 0 .967.43.967.966a.97.97 0 0 1-.967.967zM476.068 34v-9.475h1.441v1.539h.035c.598-1.073 1.626-1.627 3.094-1.627 2.083 0 3.375 1.336 3.375 3.49V34h-1.529v-5.81c0-1.546-.809-2.39-2.303-2.39-1.556 0-2.584 1.072-2.584 2.698V34h-1.529zm15.512 0v-8.209h-1.319v-1.266h1.319v-.878c0-1.75.764-2.532 2.522-2.532.299 0 .563.027.853.08v1.265a3.618 3.618 0 0 0-.712-.07c-.791 0-1.125.369-1.134 1.256v.88h1.846v1.265h-1.846V34h-1.529zm13.297-9.475V34h-1.441v-1.565h-.035c-.589 1.09-1.653 1.653-3.103 1.653-2.074 0-3.366-1.336-3.366-3.49v-6.073h1.529v5.81c0 1.556.818 2.39 2.303 2.39 1.556 0 2.584-1.072 2.584-2.698v-5.502h1.529zM507.32 34v-9.475h1.442v1.539h.035c.598-1.073 1.626-1.627 3.094-1.627 2.083 0 3.375 1.336 3.375 3.49V34h-1.53v-5.81c0-1.546-.808-2.39-2.302-2.39-1.556 0-2.584 1.072-2.584 2.698V34h-1.53zm18.176-6.39h-1.503c-.194-1.01-1.037-1.81-2.461-1.81-1.652 0-2.777 1.37-2.777 3.463 0 2.153 1.142 3.463 2.794 3.463 1.319 0 2.198-.616 2.461-1.758h1.503c-.255 1.845-1.81 3.12-3.972 3.12-2.602 0-4.342-1.846-4.342-4.825 0-2.91 1.731-4.826 4.324-4.826 2.347 0 3.779 1.512 3.973 3.173zm2.346-5.22h1.529v2.135h1.846v1.266h-1.846v5.686c0 .87.37 1.266 1.178 1.266.185 0 .554-.026.659-.044v1.292c-.184.044-.624.08-.984.08-1.714 0-2.382-.713-2.382-2.532v-5.748h-1.318v-1.266h1.318V22.39zM533.361 34v-9.475h1.53V34h-1.53zm.765-11.004a.976.976 0 0 1-.967-.967.97.97 0 0 1 .967-.966c.536 0 .967.43.967.966a.97.97 0 0 1-.967.967zm7.189 11.092c-2.663 0-4.368-1.89-4.368-4.825 0-2.945 1.705-4.826 4.368-4.826 2.663 0 4.368 1.881 4.368 4.826 0 2.935-1.705 4.825-4.368 4.825zm0-1.362c1.767 0 2.813-1.292 2.813-3.463 0-2.18-1.046-3.463-2.813-3.463-1.767 0-2.812 1.292-2.812 3.463 0 2.17 1.054 3.463 2.812 3.463zM547.652 34v-9.475h1.441v1.539h.035c.598-1.073 1.626-1.627 3.094-1.627 2.083 0 3.375 1.336 3.375 3.49V34h-1.529v-5.81c0-1.546-.809-2.39-2.303-2.39-1.556 0-2.584 1.072-2.584 2.698V34h-1.529zm13.438-1.24c1.547 0 2.68-1.001 2.68-2.363v-.765l-2.478.158c-1.424.088-2.162.607-2.162 1.52 0 .88.764 1.45 1.96 1.45zm-.326 1.328c-1.924 0-3.199-1.108-3.199-2.786 0-1.626 1.248-2.584 3.551-2.725l2.654-.158v-.791c0-1.178-.773-1.828-2.171-1.828-1.098 0-1.916.562-2.1 1.459h-1.468c.044-1.6 1.6-2.822 3.586-2.822 2.241 0 3.683 1.196 3.683 3.06V34h-1.451v-1.644h-.035c-.536 1.055-1.722 1.732-3.05 1.732zm7.014-.088V20.764h1.529V34h-1.529zm4.139 0v-9.475h1.529V34h-1.529zm.765-11.004a.975.975 0 0 1-.967-.967.97.97 0 0 1 .967-.966c.536 0 .967.43.967.966a.97.97 0 0 1-.967.967zm3.787-.606h1.53v2.135h1.845v1.266h-1.845v5.686c0 .87.369 1.266 1.178 1.266.184 0 .553-.026.659-.044v1.292c-.185.044-.624.08-.985.08-1.714 0-2.382-.713-2.382-2.532v-5.748h-1.318v-1.266h1.318V22.39zm6.24 15.047c-.193 0-.483-.027-.668-.062v-1.292c.176.035.422.053.624.053.879 0 1.354-.422 1.741-1.565l.184-.562-3.507-9.484h1.626l2.655 7.92h.035l2.654-7.92h1.609l-3.709 10.055c-.809 2.197-1.565 2.857-3.244 2.857zM313.275 52.525 310.621 62h-1.547l-2.162-7.365h-.035L304.715 62h-1.547l-2.654-9.475h1.511l1.925 7.744h.035l2.171-7.744h1.477l2.171 7.744h.035l1.925-7.744h1.511zM315.024 62v-9.475h1.529V62h-1.529zm.765-11.004a.975.975 0 0 1-.967-.967.97.97 0 0 1 .967-.967c.536 0 .967.431.967.967a.97.97 0 0 1-.967.967zm3.787-.606h1.53v2.135h1.845v1.266h-1.845v5.687c0 .87.369 1.265 1.177 1.265.185 0 .554-.026.66-.044v1.292c-.185.044-.624.08-.985.08-1.714 0-2.382-.713-2.382-2.532v-5.748h-1.318v-1.266h1.318V50.39zm5.52 11.61V48.764h1.529v5.3h.035c.589-1.073 1.644-1.627 3.094-1.627 2.074 0 3.472 1.407 3.472 3.516V62h-1.53v-5.774c0-1.512-.896-2.426-2.399-2.426-1.6 0-2.672 1.09-2.672 2.75V62h-1.529zm18.966-8.218c-1.486 0-2.558 1.081-2.663 2.68h5.212c-.036-1.608-1.055-2.68-2.549-2.68zm2.513 5.511h1.512c-.264 1.626-1.907 2.795-3.929 2.795-2.663 0-4.341-1.855-4.341-4.79 0-2.936 1.687-4.86 4.271-4.86 2.531 0 4.113 1.784 4.113 4.649v.598h-6.802v.087c0 1.802 1.107 2.971 2.795 2.971 1.186 0 2.109-.562 2.381-1.45zM350.17 62v-9.475h1.441v1.538h.035c.449-1.01 1.459-1.626 2.69-1.626 1.283 0 2.241.65 2.654 1.794h.035c.536-1.126 1.653-1.794 2.98-1.794 1.872 0 3.085 1.213 3.085 3.094V62h-1.53v-6.117c0-1.31-.729-2.083-1.995-2.083-1.265 0-2.171.94-2.171 2.241V62h-1.529v-6.302c0-1.142-.782-1.898-1.969-1.898-1.265 0-2.197.993-2.197 2.32V62h-1.529zm18.412-1.24c1.547 0 2.681-1.001 2.681-2.363v-.765l-2.478.158c-1.424.088-2.162.607-2.162 1.52 0 .88.764 1.45 1.959 1.45zm-.325 1.328c-1.925 0-3.199-1.108-3.199-2.786 0-1.626 1.248-2.584 3.551-2.725l2.654-.158v-.791c0-1.178-.773-1.828-2.171-1.828-1.098 0-1.916.562-2.1 1.459h-1.468c.044-1.6 1.6-2.822 3.586-2.822 2.241 0 3.682 1.196 3.682 3.06V62h-1.45v-1.644h-.035c-.536 1.055-1.723 1.732-3.05 1.732zm7.014-.088v-9.475h1.529V62h-1.529zm.764-11.004a.976.976 0 0 1-.967-.967.97.97 0 0 1 .967-.967c.536 0 .967.431.967.967a.97.97 0 0 1-.967.967zM379.41 62V48.764h1.529V62h-1.529zm16.444-9.475L392.356 62h-1.547l-3.498-9.475h1.599l2.654 7.823h.036l2.663-7.823h1.591zm5.132 1.257c-1.485 0-2.558 1.081-2.663 2.68h5.212c-.035-1.608-1.055-2.68-2.549-2.68zm2.514 5.511h1.511c-.263 1.626-1.907 2.795-3.928 2.795-2.663 0-4.342-1.855-4.342-4.79 0-2.936 1.687-4.86 4.271-4.86 2.532 0 4.114 1.784 4.114 4.649v.598h-6.803v.087c0 1.802 1.107 2.971 2.795 2.971 1.186 0 2.109-.562 2.382-1.45zM407.094 62v-9.475h1.441v1.538h.036c.281-.993 1.186-1.626 2.294-1.626.184 0 .457.027.588.062v1.512c-.123-.053-.527-.106-.791-.106-1.23 0-2.039.897-2.039 2.233V62h-1.529zm6.161 0v-9.475h1.529V62h-1.529zm.764-11.004a.975.975 0 0 1-.966-.967.97.97 0 0 1 .966-.967c.537 0 .967.431.967.967a.97.97 0 0 1-.967.967zM417.807 62v-8.209h-1.318v-1.266h1.318v-.878c0-1.75.765-2.532 2.523-2.532.299 0 .562.027.852.08v1.265a3.61 3.61 0 0 0-.712-.07c-.791 0-1.125.369-1.133 1.257v.878h1.845v1.266h-1.845V62h-1.53zm5.484 0v-9.475h1.53V62h-1.53zm.765-11.004a.976.976 0 0 1-.967-.967.97.97 0 0 1 .967-.967c.536 0 .967.431.967.967a.97.97 0 0 1-.967.967zm11.118 4.614h-1.503c-.194-1.01-1.037-1.81-2.461-1.81-1.652 0-2.777 1.37-2.777 3.463 0 2.153 1.142 3.463 2.794 3.463 1.319 0 2.198-.616 2.461-1.758h1.503c-.255 1.845-1.81 3.12-3.972 3.12-2.602 0-4.342-1.846-4.342-4.825 0-2.91 1.731-4.825 4.324-4.825 2.347 0 3.779 1.511 3.973 3.172zm4.939 5.15c1.547 0 2.68-1.001 2.68-2.363v-.765l-2.478.158c-1.424.088-2.162.607-2.162 1.52 0 .88.764 1.45 1.96 1.45zm-.325 1.328c-1.925 0-3.2-1.108-3.2-2.786 0-1.626 1.248-2.584 3.551-2.725l2.654-.158v-.791c0-1.178-.773-1.828-2.17-1.828-1.099 0-1.916.562-2.101 1.459h-1.468c.044-1.6 1.6-2.822 3.586-2.822 2.241 0 3.683 1.196 3.683 3.06V62h-1.45v-1.644h-.036c-.536 1.055-1.722 1.732-3.049 1.732zm7.426-11.698h1.529v2.135h1.846v1.266h-1.846v5.687c0 .87.369 1.265 1.178 1.265.185 0 .554-.026.659-.044v1.292c-.184.044-.624.08-.984.08-1.714 0-2.382-.713-2.382-2.532v-5.748h-1.318v-1.266h1.318V50.39zM452.733 62v-9.475h1.529V62h-1.529zm.765-11.004a.976.976 0 0 1-.967-.967.97.97 0 0 1 .967-.967c.536 0 .967.431.967.967a.97.97 0 0 1-.967.967zm7.189 11.092c-2.663 0-4.368-1.89-4.368-4.825 0-2.945 1.705-4.825 4.368-4.825 2.663 0 4.368 1.88 4.368 4.825 0 2.935-1.705 4.825-4.368 4.825zm0-1.362c1.767 0 2.812-1.292 2.812-3.463 0-2.18-1.045-3.463-2.812-3.463s-2.813 1.292-2.813 3.463c0 2.17 1.055 3.463 2.813 3.463zM467.024 62v-9.475h1.441v1.538h.035c.598-1.072 1.626-1.626 3.094-1.626 2.083 0 3.375 1.336 3.375 3.49V62h-1.529v-5.81c0-1.546-.809-2.39-2.303-2.39-1.556 0-2.584 1.072-2.584 2.698V62h-1.529zm11.592.088a.99.99 0 0 1-1.002-1.002.985.985 0 0 1 1.002-1.002.98.98 0 0 1 1.002 1.002.985.985 0 0 1-1.002 1.002z"/><circle cx="648.75" cy="71.75" r="1.75" fill="#A1AEE5" opacity=".4"/><circle cx="648.75" cy="13.75" r="1.75" fill="#A1AEE5" opacity=".4"/><circle cx="273.75" cy="71.75" r="1.75" fill="#A1AEE5" opacity=".4"/><circle cx="273.75" cy="13.75" r="1.75" fill="#A1AEE5" opacity=".4"/><defs><radialGradient id="b" cx="0" cy="0" r="1" gradientTransform="matrix(0 50.9091 -341.516 0 246.5 144)" gradientUnits="userSpaceOnUse"><stop stop-color="#B89FFF"/><stop offset="1" stop-opacity="0"/></radialGradient><radialGradient id="d" cx="0" cy="0" r="1" gradientTransform="matrix(0 50.9091 -341.516 0 426.5 365)" gradientUnits="userSpaceOnUse"><stop stop-color="#B89FFF"/><stop offset="1" stop-opacity="0"/></radialGradient><radialGradient id="f" cx="0" cy="0" r="1" gradientTransform="matrix(0 76.3636 -341.516 0 356.5 258)" gradientUnits="userSpaceOnUse"><stop stop-color="#B89FFF"/><stop offset="1" stop-opacity="0"/></radialGradient><radialGradient id="h" cx="0" cy="0" r="1" gradientTransform="matrix(0 76.3636 -341.516 0 204.5 513)" gradientUnits="userSpaceOnUse"><stop stop-color="#B89FFF"/><stop offset="1" stop-opacity="0"/></radialGradient><radialGradient id="j" cx="0" cy="0" r="1" gradientTransform="matrix(0 76.3636 -341.516 0 461.5 0)" gradientUnits="userSpaceOnUse"><stop stop-color="#B89FFF"/><stop offset="1" stop-opacity="0"/></radialGradient><filter id="a" width="497" height="144" x="-2" y="100" color-interpolation-filters="sRGB" filterUnits="userSpaceOnUse"><feFlood flood-opacity="0" result="BackgroundImageFix"/><feGaussianBlur in="BackgroundImageFix" stdDeviation="22"/><feComposite in2="SourceAlpha" operator="in" result="effect1_backgroundBlur_287_212"/><feBlend in="SourceGraphic" in2="effect1_backgroundBlur_287_212" result="shape"/></filter><filter id="c" width="497" height="144" x="178" y="321" color-interpolation-filters="sRGB" filterUnits="userSpaceOnUse"><feFlood flood-opacity="0" result="BackgroundImageFix"/><feGaussianBlur in="BackgroundImageFix" stdDeviation="22"/><feComposite in2="SourceAlpha" operator="in" result="effect1_backgroundBlur_287_212"/><feBlend in="SourceGraphic" in2="effect1_backgroundBlur_287_212" result="shape"/></filter><filter id="e" width="497" height="172" x="108" y="214" color-interpolation-filters="sRGB" filterUnits="userSpaceOnUse"><feFlood flood-opacity="0" result="BackgroundImageFix"/><feGaussianBlur in="BackgroundImageFix" stdDeviation="22"/><feComposite in2="SourceAlpha" operator="in" result="effect1_backgroundBlur_287_212"/><feBlend in="SourceGraphic" in2="effect1_backgroundBlur_287_212" result="shape"/></filter><filter id="g" width="497" height="172" x="-44" y="469" color-interpolation-filters="sRGB" filterUnits="userSpaceOnUse"><feFlood flood-opacity="0" result="BackgroundImageFix"/><feGaussianBlur in="BackgroundImageFix" stdDeviation="22"/><feComposite in2="SourceAlpha" operator="in" result="effect1_backgroundBlur_287_212"/><feBlend in="SourceGraphic" in2="effect1_backgroundBlur_287_212" result="shape"/></filter><filter id="i" width="497" height="172" x="213" y="-44" color-interpolation-filters="sRGB" filterUnits="userSpaceOnUse"><feFlood flood-opacity="0" result="BackgroundImageFix"/><feGaussianBlur in="BackgroundImageFix" stdDeviation="22"/><feComposite in2="SourceAlpha" operator="in" result="effect1_backgroundBlur_287_212"/><feBlend in="SourceGraphic" in2="effect1_backgroundBlur_287_212" result="shape"/></filter></defs></svg>