<svg xmlns="http://www.w3.org/2000/svg" xmlns:xlink="http://www.w3.org/1999/xlink" zoomAndPan="magnify" preserveAspectRatio="xMidYMid meet" version="1.0" viewBox="47.62 268.47 728.42 203.23"><defs><g/></defs><g fill="#ff878c" fill-opacity="1"><g transform="translate(68.757933, 461.296537)"><g><path d="M 116.027344 -184.0625 C 50.46875 -184.0625 9.648438 -149.675781 9.648438 -109.101562 C 9.648438 -91.042969 20.285156 -74.714844 40.574219 -74.714844 C 64.570312 -74.714844 77.433594 -95.988281 72.980469 -106.875 C 67.539062 -106.875 63.582031 -111.824219 63.582031 -118.503906 C 63.582031 -141.261719 88.320312 -150.910156 117.019531 -150.910156 C 144.480469 -150.910156 160.066406 -142.253906 160.066406 -120.976562 C 160.066406 -99.699219 145.222656 -88.074219 131.367188 -88.074219 C 120.480469 -88.074219 118.007812 -92.527344 121.472656 -102.421875 L 120.730469 -100.691406 C 122.214844 -106.875 125.183594 -114.542969 128.894531 -125.429688 C 131.367188 -133.59375 128.398438 -138.789062 118.007812 -138.789062 C 110.585938 -138.789062 105.144531 -135.574219 101.925781 -126.914062 C 97.722656 -116.277344 93.019531 -103.660156 88.816406 -92.527344 C 77.1875 -62.839844 58.632812 -50.222656 45.027344 -50.222656 C 33.398438 -50.222656 24.246094 -57.644531 24.246094 -68.527344 C 24.246094 -70.261719 22.511719 -71.496094 20.535156 -71.496094 C 0.742188 -71.496094 -12.371094 -51.210938 -12.371094 -30.429688 C -12.371094 -10.144531 -0.742188 10.390625 28.203125 10.390625 C 60.363281 10.390625 86.589844 -18.554688 100.9375 -56.40625 L 101.679688 -58.136719 L 100.9375 -56.40625 L 102.175781 -58.878906 C 103.660156 -61.105469 105.636719 -62.34375 108.113281 -62.34375 C 114.296875 -62.34375 117.019531 -55.167969 133.347656 -55.167969 C 177.628906 -55.167969 199.648438 -90.300781 199.648438 -120.976562 C 199.648438 -161.300781 172.929688 -184.0625 116.027344 -184.0625 Z M 116.027344 -184.0625 "/></g></g></g><g fill="#ff878c" fill-opacity="1"><g transform="translate(256.772212, 461.296537)"><g><path d="M 46.511719 0 C 75.207031 0 101.433594 -21.277344 123.203125 -61.601562 C 125.925781 -66.300781 116.027344 -73.722656 112.070312 -67.785156 C 100.9375 -50.714844 80.898438 -42.058594 64.074219 -42.058594 C 49.972656 -42.058594 38.347656 -46.511719 38.347656 -55.167969 C 38.347656 -58.386719 40.820312 -59.128906 42.550781 -58.136719 C 48.242188 -54.921875 54.921875 -54.179688 61.847656 -54.179688 C 86.09375 -54.179688 101.679688 -74.464844 101.679688 -92.527344 C 101.679688 -108.855469 91.535156 -123.699219 68.527344 -123.699219 C -2.472656 -123.699219 -23.007812 0 46.511719 0 Z M 55.417969 -72.734375 C 47.5 -72.734375 43.789062 -77.433594 43.789062 -82.878906 C 43.789062 -89.558594 49.726562 -96.730469 59.375 -96.730469 C 67.042969 -96.730469 70.753906 -92.03125 70.753906 -86.589844 C 70.753906 -80.402344 65.066406 -72.734375 55.417969 -72.734375 Z M 55.417969 -72.734375 "/></g></g></g><g fill="#ff878c" fill-opacity="1"><g transform="translate(363.148715, 461.296537)"><g><path d="M 101.679688 -67.785156 C 96.730469 -60.363281 91.535156 -54.921875 84.113281 -54.675781 C 80.898438 -70.011719 67.785156 -89.804688 67.785156 -94.503906 C 67.785156 -104.402344 85.847656 -105.144531 85.597656 -113.058594 C 85.847656 -120.976562 78.425781 -129.882812 63.085938 -129.882812 C 41.808594 -129.882812 24.246094 -93.019531 6.679688 -69.269531 L 5.691406 -67.785156 C -9.152344 -43.046875 -3.957031 -0.246094 39.582031 -0.246094 C 85.597656 -0.246094 105.886719 -47.253906 112.8125 -61.601562 C 115.039062 -66.300781 105.636719 -73.722656 101.679688 -67.785156 Z M 30.675781 -51.210938 C 22.511719 -51.210938 16.824219 -55.664062 16.824219 -61.601562 C 22.511719 -68.777344 30.183594 -78.917969 36.367188 -88.074219 C 38.59375 -91.289062 40.574219 -91.289062 42.304688 -88.074219 C 45.769531 -81.394531 47.746094 -75.207031 47.746094 -69.269531 C 47.746094 -59.128906 41.5625 -51.210938 30.675781 -51.210938 Z M 30.675781 -51.210938 "/></g></g></g><g fill="#ff878c" fill-opacity="1"><g transform="translate(458.887555, 461.296537)"><g><path d="M 24.988281 0 C 60.613281 0 79.660156 -47.5 87.082031 -61.601562 C 89.558594 -66.300781 79.910156 -73.476562 75.949219 -67.785156 C 71.003906 -60.117188 63.085938 -55.417969 53.191406 -55.417969 C 38.59375 -55.417969 30.925781 -66.300781 36.121094 -83.621094 C 40.820312 -100.195312 42.304688 -100.691406 65.3125 -100.691406 C 75.207031 -100.691406 78.175781 -123.449219 71.496094 -123.449219 L 58.632812 -123.449219 C 53.933594 -123.449219 54.675781 -127.65625 58.386719 -135.574219 C 66.054688 -151.160156 62.839844 -158.828125 53.683594 -158.828125 C 47.5 -158.828125 42.058594 -156.601562 36.121094 -142.253906 C 32.65625 -133.347656 24.738281 -123.449219 10.390625 -123.449219 C 4.699219 -123.449219 4.949219 -104.402344 19.296875 -104.402344 C 13.113281 -87.332031 7.667969 -72.734375 3.464844 -60.363281 C -7.667969 -28.699219 -2.722656 0 24.988281 0 Z M 24.988281 0 "/></g></g></g><g fill="#ff878c" fill-opacity="1"><g transform="translate(529.145521, 461.296537)"><g><path d="M 49.726562 -133.839844 C 62.589844 -133.839844 72.734375 -138.789062 74.21875 -154.128906 C 75.457031 -169.464844 65.3125 -174.167969 52.695312 -174.167969 C 39.089844 -174.167969 27.957031 -168.972656 27.957031 -151.40625 C 27.957031 -138.292969 37.851562 -133.839844 49.726562 -133.839844 Z M 22.265625 0 C 54.179688 0 70.011719 -48.488281 77.929688 -61.847656 C 80.402344 -66.300781 70.753906 -73.722656 66.796875 -67.785156 C 61.847656 -60.363281 57.148438 -55.417969 49.726562 -55.417969 C 43.046875 -55.417969 38.59375 -59.621094 38.59375 -67.785156 C 38.59375 -81.144531 49.726562 -97.472656 49.726562 -112.566406 C 49.726562 -120.480469 46.511719 -123.699219 41.316406 -123.699219 C 27.214844 -123.699219 17.070312 -103.660156 5.691406 -67.785156 C 1.980469 -55.910156 -0.496094 -42.550781 -0.496094 -30.925781 C -0.496094 -13.605469 5.691406 0 22.265625 0 Z M 22.265625 0 "/></g></g></g><g fill="#ff878c" fill-opacity="1"><g transform="translate(590.002788, 461.296537)"><g><path d="M 21.027344 0 C 54.425781 0 71.25 -47.996094 79.167969 -61.601562 C 81.886719 -66.300781 71.992188 -73.722656 68.035156 -67.785156 C 62.839844 -59.871094 56.652344 -55.167969 47.996094 -55.167969 C 33.152344 -55.167969 35.128906 -69.269531 39.335938 -83.621094 C 45.027344 -104.402344 54.675781 -127.160156 68.28125 -154.621094 C 75.949219 -170.207031 72.488281 -177.878906 62.34375 -177.878906 C 42.304688 -177.878906 30.925781 -140.027344 5.9375 -67.785156 C 0.988281 -53.683594 -2.472656 -38.097656 -2.472656 -25.480469 C -2.472656 -10.886719 3.464844 0 21.027344 0 Z M 21.027344 0 "/></g></g></g><g fill="#ff878c" fill-opacity="1"><g transform="translate(652.344381, 461.296537)"><g><path d="M 46.511719 0 C 75.207031 0 101.433594 -21.277344 123.203125 -61.601562 C 125.925781 -66.300781 116.027344 -73.722656 112.070312 -67.785156 C 100.9375 -50.714844 80.898438 -42.058594 64.074219 -42.058594 C 49.972656 -42.058594 38.347656 -46.511719 38.347656 -55.167969 C 38.347656 -58.386719 40.820312 -59.128906 42.550781 -58.136719 C 48.242188 -54.921875 54.921875 -54.179688 61.847656 -54.179688 C 86.09375 -54.179688 101.679688 -74.464844 101.679688 -92.527344 C 101.679688 -108.855469 91.535156 -123.699219 68.527344 -123.699219 C -2.472656 -123.699219 -23.007812 0 46.511719 0 Z M 55.417969 -72.734375 C 47.5 -72.734375 43.789062 -77.433594 43.789062 -82.878906 C 43.789062 -89.558594 49.726562 -96.730469 59.375 -96.730469 C 67.042969 -96.730469 70.753906 -92.03125 70.753906 -86.589844 C 70.753906 -80.402344 65.066406 -72.734375 55.417969 -72.734375 Z M 55.417969 -72.734375 "/></g></g></g><g fill="#fbfaf9" fill-opacity="1"><g transform="translate(60.01076, 452.549371)"><g><path d="M 116.027344 -184.0625 C 50.46875 -184.0625 9.648438 -149.675781 9.648438 -109.101562 C 9.648438 -91.042969 20.285156 -74.714844 40.574219 -74.714844 C 64.570312 -74.714844 77.433594 -95.988281 72.980469 -106.875 C 67.539062 -106.875 63.582031 -111.824219 63.582031 -118.503906 C 63.582031 -141.261719 88.320312 -150.910156 117.019531 -150.910156 C 144.480469 -150.910156 160.066406 -142.253906 160.066406 -120.976562 C 160.066406 -99.699219 145.222656 -88.074219 131.367188 -88.074219 C 120.480469 -88.074219 118.007812 -92.527344 121.472656 -102.421875 L 120.730469 -100.691406 C 122.214844 -106.875 125.183594 -114.542969 128.894531 -125.429688 C 131.367188 -133.59375 128.398438 -138.789062 118.007812 -138.789062 C 110.585938 -138.789062 105.144531 -135.574219 101.925781 -126.914062 C 97.722656 -116.277344 93.019531 -103.660156 88.816406 -92.527344 C 77.1875 -62.839844 58.632812 -50.222656 45.027344 -50.222656 C 33.398438 -50.222656 24.246094 -57.644531 24.246094 -68.527344 C 24.246094 -70.261719 22.511719 -71.496094 20.535156 -71.496094 C 0.742188 -71.496094 -12.371094 -51.210938 -12.371094 -30.429688 C -12.371094 -10.144531 -0.742188 10.390625 28.203125 10.390625 C 60.363281 10.390625 86.589844 -18.554688 100.9375 -56.40625 L 101.679688 -58.136719 L 100.9375 -56.40625 L 102.175781 -58.878906 C 103.660156 -61.105469 105.636719 -62.34375 108.113281 -62.34375 C 114.296875 -62.34375 117.019531 -55.167969 133.347656 -55.167969 C 177.628906 -55.167969 199.648438 -90.300781 199.648438 -120.976562 C 199.648438 -161.300781 172.929688 -184.0625 116.027344 -184.0625 Z M 116.027344 -184.0625 "/></g></g></g><g fill="#fbfaf9" fill-opacity="1"><g transform="translate(248.025038, 452.549371)"><g><path d="M 46.511719 0 C 75.207031 0 101.433594 -21.277344 123.203125 -61.601562 C 125.925781 -66.300781 116.027344 -73.722656 112.070312 -67.785156 C 100.9375 -50.714844 80.898438 -42.058594 64.074219 -42.058594 C 49.972656 -42.058594 38.347656 -46.511719 38.347656 -55.167969 C 38.347656 -58.386719 40.820312 -59.128906 42.550781 -58.136719 C 48.242188 -54.921875 54.921875 -54.179688 61.847656 -54.179688 C 86.09375 -54.179688 101.679688 -74.464844 101.679688 -92.527344 C 101.679688 -108.855469 91.535156 -123.699219 68.527344 -123.699219 C -2.472656 -123.699219 -23.007812 0 46.511719 0 Z M 55.417969 -72.734375 C 47.5 -72.734375 43.789062 -77.433594 43.789062 -82.878906 C 43.789062 -89.558594 49.726562 -96.730469 59.375 -96.730469 C 67.042969 -96.730469 70.753906 -92.03125 70.753906 -86.589844 C 70.753906 -80.402344 65.066406 -72.734375 55.417969 -72.734375 Z M 55.417969 -72.734375 "/></g></g></g><g fill="#fbfaf9" fill-opacity="1"><g transform="translate(354.401541, 452.549371)"><g><path d="M 101.679688 -67.785156 C 96.730469 -60.363281 91.535156 -54.921875 84.113281 -54.675781 C 80.898438 -70.011719 67.785156 -89.804688 67.785156 -94.503906 C 67.785156 -104.402344 85.847656 -105.144531 85.597656 -113.058594 C 85.847656 -120.976562 78.425781 -129.882812 63.085938 -129.882812 C 41.808594 -129.882812 24.246094 -93.019531 6.679688 -69.269531 L 5.691406 -67.785156 C -9.152344 -43.046875 -3.957031 -0.246094 39.582031 -0.246094 C 85.597656 -0.246094 105.886719 -47.253906 112.8125 -61.601562 C 115.039062 -66.300781 105.636719 -73.722656 101.679688 -67.785156 Z M 30.675781 -51.210938 C 22.511719 -51.210938 16.824219 -55.664062 16.824219 -61.601562 C 22.511719 -68.777344 30.183594 -78.917969 36.367188 -88.074219 C 38.59375 -91.289062 40.574219 -91.289062 42.304688 -88.074219 C 45.769531 -81.394531 47.746094 -75.207031 47.746094 -69.269531 C 47.746094 -59.128906 41.5625 -51.210938 30.675781 -51.210938 Z M 30.675781 -51.210938 "/></g></g></g><g fill="#fbfaf9" fill-opacity="1"><g transform="translate(450.140381, 452.549371)"><g><path d="M 24.988281 0 C 60.613281 0 79.660156 -47.5 87.082031 -61.601562 C 89.558594 -66.300781 79.910156 -73.476562 75.949219 -67.785156 C 71.003906 -60.117188 63.085938 -55.417969 53.191406 -55.417969 C 38.59375 -55.417969 30.925781 -66.300781 36.121094 -83.621094 C 40.820312 -100.195312 42.304688 -100.691406 65.3125 -100.691406 C 75.207031 -100.691406 78.175781 -123.449219 71.496094 -123.449219 L 58.632812 -123.449219 C 53.933594 -123.449219 54.675781 -127.65625 58.386719 -135.574219 C 66.054688 -151.160156 62.839844 -158.828125 53.683594 -158.828125 C 47.5 -158.828125 42.058594 -156.601562 36.121094 -142.253906 C 32.65625 -133.347656 24.738281 -123.449219 10.390625 -123.449219 C 4.699219 -123.449219 4.949219 -104.402344 19.296875 -104.402344 C 13.113281 -87.332031 7.667969 -72.734375 3.464844 -60.363281 C -7.667969 -28.699219 -2.722656 0 24.988281 0 Z M 24.988281 0 "/></g></g></g><g fill="#fbfaf9" fill-opacity="1"><g transform="translate(520.398347, 452.549371)"><g><path d="M 49.726562 -133.839844 C 62.589844 -133.839844 72.734375 -138.789062 74.21875 -154.128906 C 75.457031 -169.464844 65.3125 -174.167969 52.695312 -174.167969 C 39.089844 -174.167969 27.957031 -168.972656 27.957031 -151.40625 C 27.957031 -138.292969 37.851562 -133.839844 49.726562 -133.839844 Z M 22.265625 0 C 54.179688 0 70.011719 -48.488281 77.929688 -61.847656 C 80.402344 -66.300781 70.753906 -73.722656 66.796875 -67.785156 C 61.847656 -60.363281 57.148438 -55.417969 49.726562 -55.417969 C 43.046875 -55.417969 38.59375 -59.621094 38.59375 -67.785156 C 38.59375 -81.144531 49.726562 -97.472656 49.726562 -112.566406 C 49.726562 -120.480469 46.511719 -123.699219 41.316406 -123.699219 C 27.214844 -123.699219 17.070312 -103.660156 5.691406 -67.785156 C 1.980469 -55.910156 -0.496094 -42.550781 -0.496094 -30.925781 C -0.496094 -13.605469 5.691406 0 22.265625 0 Z M 22.265625 0 "/></g></g></g><g fill="#fbfaf9" fill-opacity="1"><g transform="translate(581.255614, 452.549371)"><g><path d="M 21.027344 0 C 54.425781 0 71.25 -47.996094 79.167969 -61.601562 C 81.886719 -66.300781 71.992188 -73.722656 68.035156 -67.785156 C 62.839844 -59.871094 56.652344 -55.167969 47.996094 -55.167969 C 33.152344 -55.167969 35.128906 -69.269531 39.335938 -83.621094 C 45.027344 -104.402344 54.675781 -127.160156 68.28125 -154.621094 C 75.949219 -170.207031 72.488281 -177.878906 62.34375 -177.878906 C 42.304688 -177.878906 30.925781 -140.027344 5.9375 -67.785156 C 0.988281 -53.683594 -2.472656 -38.097656 -2.472656 -25.480469 C -2.472656 -10.886719 3.464844 0 21.027344 0 Z M 21.027344 0 "/></g></g></g><g fill="#fbfaf9" fill-opacity="1"><g transform="translate(643.597207, 452.549371)"><g><path d="M 46.511719 0 C 75.207031 0 101.433594 -21.277344 123.203125 -61.601562 C 125.925781 -66.300781 116.027344 -73.722656 112.070312 -67.785156 C 100.9375 -50.714844 80.898438 -42.058594 64.074219 -42.058594 C 49.972656 -42.058594 38.347656 -46.511719 38.347656 -55.167969 C 38.347656 -58.386719 40.820312 -59.128906 42.550781 -58.136719 C 48.242188 -54.921875 54.921875 -54.179688 61.847656 -54.179688 C 86.09375 -54.179688 101.679688 -74.464844 101.679688 -92.527344 C 101.679688 -108.855469 91.535156 -123.699219 68.527344 -123.699219 C -2.472656 -123.699219 -23.007812 0 46.511719 0 Z M 55.417969 -72.734375 C 47.5 -72.734375 43.789062 -77.433594 43.789062 -82.878906 C 43.789062 -89.558594 49.726562 -96.730469 59.375 -96.730469 C 67.042969 -96.730469 70.753906 -92.03125 70.753906 -86.589844 C 70.753906 -80.402344 65.066406 -72.734375 55.417969 -72.734375 Z M 55.417969 -72.734375 "/></g></g></g></svg>