<svg xmlns="http://www.w3.org/2000/svg" width="64" height="64" id="pokemon"><g transform="translate(-41.816 -1140.34)"><ellipse cx="77.171" cy="1194.213" fill="#e8edf1" rx="27.474" ry="5.492"></ellipse><ellipse cx="5.748" cy="1195.923" fill="#fff8aa" stroke="#000" stroke-linecap="round" stroke-linejoin="round" rx="7.939" ry="3.013" transform="matrix(.99557 -.09403 .05191 .99865 0 0)"></ellipse><path fill="none" stroke="#000" stroke-linecap="round" d="m60.175 1194.817 2.095-.442"></path><path fill="#ecd160" fill-rule="evenodd" stroke="#000" d="M56.911 1163.954c-.51-.9-1.544-4.47-1.424-7.591.121-3.121 1.397-5.794 1.397-5.794s2.68.067 5.312 1.014c2.337.842 4.636 2.473 4.983 3.944m5.66 1.6s1.53-5.223 3.22-7.07c1.434-1.566 4.648-3.036 4.648-3.036l3.356 3.369c2.695 2.705-.74 8.644-.74 8.644"></path><path fill="#ecd160" fill-rule="evenodd" stroke="#000" d="M76.325 1153.78s2.74-1.963 4.273-1.364c1.88.735 1.845 5.217 1.845 5.217m-21.588 3.657s-.044-5.526 2.929-6.59c2.972-1.064 6.578 4.017 6.578 4.017"></path><path fill="#fff8aa" fill-rule="evenodd" stroke="#000" stroke-linecap="round" d="M59.513 1178.99s2.012-6.796.27-9.184c-1.098-1.507-4.3-4.515-4.3-4.515l-3.912-3.904s4.382-2.265 8.329-2.624c2.18-.198 5.931 1.283 5.931 1.283s.057-2.392 1.892-8.26c.653-2.088 3.012-6.669 3.012-6.669s3.883 3.31 5.412 5.191c2.978 3.662 4.254 6.71 4.254 6.71s4.243-4.692 8.281-5.756c3.143-.828 7.005.342 7.005.342s-2.708 4.61-4.273 7.096c-2.345 3.726-3.733 6.78-3.733 6.78l1.335 6.256"></path><path fill="#c43a46" fill-rule="evenodd" stroke="#000" d="m71.939 1163.725 2.666-.71s.756 3.823-.447 4.331c-1.236.522-2.22-3.621-2.22-3.621z"></path><path fill="#eaeae9" stroke="#000" stroke-linecap="round" stroke-linejoin="round" d="M92.477 1174.207c1.308 9.37-5.57 18.09-15.363 19.477-9.793 1.388-18.792-5.083-20.1-14.452-.655-4.685 1.145-10.2 1.145-10.2l3.263 4.77 5.728-4.251 4.864 5.006 2.627-5.352 5.565 2.077 2.574-4.561 4.986 3.648 1.136-5.417s2.92 4.57 3.575 9.255z"></path><path fill="#cc2405" stroke="#000" stroke-linecap="round" stroke-linejoin="round" d="M82.856 1170.231c-.333.093-1.051 3.667-1.104 3.905-.053.238-1.332 3.887-1.058 4.021.275.134 5.45-1.402 5.777-1.49.326-.088 4.936-1.432 5.002-1.673.065-.241-3.769-2.376-4.029-2.512-.26-.137-4.254-2.343-4.588-2.25zm.77 2.043c.184-.036 2.62 1.173 2.777 1.248.159.075 2.498 1.244 2.477 1.361-.02.118-2.568.652-2.748.687-.18.034-3.037.648-3.203.574-.166-.074.318-1.848.332-1.965.014-.116.18-1.868.365-1.905zm-19.318 8.387c-.224.105-.706 4.19-.742 4.461-.035.272-.895 4.44-.711 4.593.184.153 3.663-1.601 3.882-1.702.22-.101 3.319-1.636 3.363-1.912.044-.275-2.533-2.713-2.708-2.87-.175-.155-2.86-2.676-3.084-2.57zm.85 2.233c.115-.04 1.639 1.3 1.738 1.384.099.083 1.562 1.38 1.549 1.51-.013.13-1.606.723-1.719.762-.113.038-1.9.717-2.005.635-.104-.082.2-2.05.208-2.178.008-.13.113-2.073.228-2.113z"></path><path fill="none" stroke="#000" stroke-linecap="round" stroke-linejoin="round" d="M261.175-1134.351a1.263 1.279 0 0 1-.631 1.108 1.263 1.279 0 0 1-1.264 0 1.263 1.279 0 0 1-.631-1.108" transform="rotate(163.554) skewX(-.12)"></path><path fill="none" stroke="#000" stroke-linecap="round" stroke-linejoin="round" d="M347.577-1106.458a1.267 1.275 0 0 1-.633 1.104 1.267 1.275 0 0 1-1.267 0 1.267 1.275 0 0 1-.633-1.104" transform="matrix(-.92943 .369 -.35997 -.93296 0 0)"></path><path fill="#fff8aa" fill-rule="evenodd" stroke="#000" d="M61.432 1176.719c1.217 1.24-.507 3.437-2.368 4.875-1.4 1.082-2.137-.08-4.982-2.758-1.777-1.673-4.905-5.79-2.961-5.425 2.277.426 4.002 1.005 5.965 1.571 1.975.57 3.614.992 4.346 1.737z"></path><path fill="#0085be" stroke="#000" stroke-linecap="round" stroke-linejoin="round" stroke-width="4.484" d="M-66.448 33.973c-.52.512-10.497-2.005-11.218-2.196-.72-.191-12.125-2.25-12.358-2.946-.233-.696 8.303-9.149 8.793-9.696.49-.547 8.007-8.263 8.708-8.068.701.195 3.46 10.713 3.64 11.422.181.709 2.955 10.971 2.435 11.484z" transform="matrix(.22017 0 0 .22586 96.004 1184.251)"></path><ellipse cx="250.257" cy="1193.459" fill="#fff8aa" stroke="#000" stroke-linecap="round" stroke-linejoin="round" stroke-width="1.004" rx="4.788" ry="7.703" transform="matrix(.99995 .01042 -.135 .99085 0 0)"></ellipse><path fill="none" stroke="#000" stroke-linecap="round" d="m89.838 1183.6 1.076-5.678"></path><path fill="#e48b69" stroke="#000" stroke-linecap="round" stroke-linejoin="round" stroke-width="1.001" d="M285.21 1138.694a3.072 4.137 0 0 1-3.057 4.137 3.072 4.137 0 0 1-3.087-4.098l3.072-.039z" transform="matrix(.9747 .22353 -.16345 .98655 0 0)"></path><path fill="#e33b1c" stroke="#000" stroke-linecap="round" stroke-linejoin="round" stroke-width="5.587" d="M-117.902-7.095c-.62.329-10.369 5.93-11.01 5.602-.64-.328-.112-11.198-.141-11.9-.029-.702-.614-11.23.018-11.573.631-.343 10.108 5.176 10.722 5.515.614.338 9.718 5.681 9.722 6.395.004.714-8.692 5.633-9.31 5.961z" transform="matrix(.1422 .08758 -.09232 .16843 81.076 1189.92)"></path><path fill="#fff8aa" fill-rule="evenodd" stroke="#000" d="M86.253 1169.927c1.217 1.24-.507 3.438-2.367 4.875-1.4 1.082-2.138-.08-4.983-2.758-1.777-1.673-4.905-5.789-2.96-5.425 2.276.427 4.002 1.006 5.965 1.572 1.975.57 3.614.991 4.345 1.736z"></path><path fill="#0085be" stroke="#000" stroke-linecap="round" stroke-linejoin="round" d="M69.84 1177.68c-.163-.01-.268.01-.298.047-.236.298 1.618 5.774 1.737 6.141.12.367 1.52 6.23 1.86 6.286.342.056 3.933-4.705 4.165-4.992.233-.288 3.448-4.496 3.339-4.874-.11-.377-5.059-1.538-5.39-1.605-.288-.06-4.265-.975-5.412-1.004zm1.455 1.591c.785.025 3.51.67 3.707.712.226.047 3.617.864 3.693 1.122.077.259-2.104 3.115-2.262 3.31-.157.196-2.594 3.429-2.828 3.389-.233-.04-1.215-4.048-1.298-4.3-.084-.25-1.376-3.999-1.216-4.2.02-.026.092-.037.204-.033z"></path><path fill="#db5661" fill-rule="evenodd" d="m72.505 1164.627 1.951-.458s.543 2.528-.338 2.858c-.905.34-1.613-2.4-1.613-2.4z"></path></g></svg>